<?xml version="1.0" encoding="utf-8"?>
<!-- Generator: Adobe Illustrator 16.0.0, SVG Export Plug-In . SVG Version: 6.00 Build 0)  -->
<!DOCTYPE svg PUBLIC "-//W3C//DTD SVG 1.1//EN" "http://www.w3.org/Graphics/SVG/1.1/DTD/svg11.dtd">
<svg version="1.1" xmlns="http://www.w3.org/2000/svg" xmlns:xlink="http://www.w3.org/1999/xlink" x="0px" y="0px"
	 width="309.507px" height="295.475px" viewBox="0 0 309.507 295.475" enable-background="new 0 0 309.507 295.475"
	 xml:space="preserve">
<g id="Layer_2" display="none">
	<rect display="inline" fill="#111111" width="309.507" height="295.475"/>
</g>
<g id="Layer_1">
	<g>
		<polygon fill="#1F57A7" points="264.874,242.518 277.192,256.328 277.073,256.326 277.218,256.363 246.931,256.363 
			254.562,272.752 294.638,273.273 309.507,243.1 		"/>
		<polygon fill="#153C6B" points="44.635,242.54 32.337,256.363 48.853,256.363 		"/>
		<polygon fill="#153C6B" points="264.921,242.54 277.218,256.363 260.702,256.363 		"/>
		<g>
			<g>
				
					<linearGradient id="SVGID_1_" gradientUnits="userSpaceOnUse" x1="172.0996" y1="30.6353" x2="137.7737" y2="166.4063" gradientTransform="matrix(0.9951 -0.0989 0.0989 0.9951 -8.1099 32.9143)">
					<stop  offset="0" style="stop-color:#FFFFFF"/>
					<stop  offset="1" style="stop-color:#D0D2D3"/>
				</linearGradient>
				<path fill="url(#SVGID_1_)" d="M218.397,115.388c3.514,35.34-22.066,66.815-57.133,70.3
					c-35.067,3.486-66.342-22.338-69.854-57.679c-3.513-35.34,22.067-66.815,57.134-70.3S214.886,80.047,218.397,115.388z"/>
				<g>
					
						<linearGradient id="SVGID_2_" gradientUnits="userSpaceOnUse" x1="176.7388" y1="38.0723" x2="131.7253" y2="165.6106" gradientTransform="matrix(0.9951 -0.0989 0.0989 0.9951 -8.1099 32.9143)">
						<stop  offset="0" style="stop-color:#404041"/>
						<stop  offset="1" style="stop-color:#231F20"/>
					</linearGradient>
					<path fill="url(#SVGID_2_)" d="M91.139,125.273c0.005-0.853,0.033-1.706,0.012-2.559c-0.055-2.215,0-4.426,0.173-6.634
						c0.197-2.512,0.522-5.006,1.022-7.476c0.191-0.946,0.401-1.89,0.618-2.901c1.041,1.022,2.239,1.156,3.496,0.83
						c1.216-0.315,2.16-1.011,2.753-2.168c0.331-0.647,0.753-1.251,1.165-1.854c2.783-4.079,5.337-8.297,7.667-12.648
						c1.819-3.4,3.548-6.848,5.349-10.258c0.785-1.489,0.34-3.637-0.751-4.741c-0.337-0.341-0.8-0.557-1.255-0.863
						c0.563-0.514,1.135-1.057,1.729-1.576c2.678-2.346,5.525-4.465,8.561-6.326c4.347-2.666,8.944-4.791,13.808-6.339
						c2.585-0.823,5.211-1.48,7.878-1.961c1.121-0.202,2.256-0.329,3.385-0.492c0.573-0.083,1.145-0.189,1.721-0.249
						c0.488-0.05,0.982-0.047,1.553-0.071c-0.103,0.215-0.17,0.36-0.24,0.503c-0.73,1.462-0.446,3.381,0.717,4.476
						c0.318,0.299,0.734,0.557,1.15,0.681c2.186,0.652,4.377,1.285,6.582,1.87c4.453,1.181,8.961,2.123,13.492,2.953
						c2.541,0.465,5.084,0.91,7.631,1.343c1.352,0.23,2.662,0.038,3.893-0.573c0.729-0.362,1.342-0.872,1.627-1.672
						c0.211-0.584,0.223-1.178,0.008-1.771c-0.029-0.077-0.02-0.167-0.037-0.337c6.459,3.516,12.092,7.989,16.977,13.393
						c5.078,5.618,9.045,11.946,11.918,18.993c-0.514-0.166-0.949-0.365-1.404-0.435c-0.344-0.052-0.734,0.001-1.066,0.116
						c-0.896,0.312-1.518,0.951-1.936,1.797c-0.447,0.905-0.652,1.872-0.678,2.869c-0.02,0.794,0,1.592,0.063,2.384
						c0.238,2.985,0.5,5.969,0.754,8.953c0.168,1.975,0.283,3.957,0.521,5.923c0.279,2.306,0.645,4.602,1.016,6.896
						c0.23,1.42,0.527,2.83,0.816,4.24c0.342,1.661,1.914,3,3.607,3.119c0.689,0.049,1.258-0.207,1.758-0.649
						c0.207-0.184,0.385-0.399,0.678-0.708c-1.201,7.898-3.695,15.209-7.527,22.066c-3.838,6.87-8.77,12.837-14.889,18.003
						c-0.006-0.506,0.025-0.883-0.025-1.25c-0.102-0.744-0.172-1.504-0.395-2.215c-0.602-1.926-2.086-2.445-3.809-2.014
						c-2.066,0.52-4.092,1.178-6.086,1.934c-3.281,1.244-6.455,2.738-9.633,4.221c-3.277,1.529-6.576,3.01-9.854,4.537
						c-1.484,0.691-2.781,1.65-3.705,3.031c-0.57,0.852-0.846,1.779-0.514,2.814c0.152,0.471,0.416,0.863,0.799,1.146
						c0.656,0.484,1.344,0.926,2.018,1.383c0.119,0.08,0.248,0.146,0.359,0.281c-7.225,1.188-14.42,1.059-21.592-0.322
						c-9.638-1.857-18.461-6.074-24.56-10.6c0.588,0.031,1.244,0.146,1.88,0.078c0.517-0.057,1.056-0.256,1.503-0.529
						c1.013-0.615,1.323-1.59,1.168-2.732c-0.185-1.355-0.725-2.566-1.548-3.645c-0.562-0.736-1.152-1.451-1.753-2.154
						c-1.902-2.227-3.787-4.469-5.732-6.659c-3.075-3.461-6.198-6.879-9.562-10.069c-0.625-0.593-1.237-1.201-1.893-1.757
						c-1.055-0.896-2.29-1.267-3.665-1.074c-0.72,0.1-1.269,0.514-1.66,1.121c-0.149,0.234-0.267,0.488-0.453,0.832
						c-0.17-0.363-0.323-0.661-0.452-0.969c-1.45-3.48-2.641-7.045-3.452-10.729c-0.31-1.405-0.544-2.827-0.824-4.238
						c-0.111-0.562-0.257-1.118-0.387-1.677C91.463,128.534,91.301,126.904,91.139,125.273z M170.284,104.265
						c0.256-0.026,0.52-0.026,0.77-0.082c0.732-0.163,1.49-0.284,2.086-0.794c2.652-2.27,5.32-4.522,7.941-6.827
						c1.992-1.752,3.842-3.648,5.471-5.754c0.355-0.459,0.479-0.927,0.469-1.485c-0.018-1.257-0.4-2.412-0.93-3.531
						c-0.926-1.961-1.984-3.849-2.648-5.944c-0.549-1.735-1.381-3.386-2.143-5.049c-0.629-1.375-1.428-2.654-2.49-3.751
						c-0.65-0.673-1.361-1.224-2.301-1.479c-1.641-0.445-3.252-0.997-4.896-1.429c-3.25-0.854-6.549-1.481-9.857-2.066
						c-2.225-0.394-4.447-0.8-6.668-1.218c-0.819-0.154-1.544-0.035-2.287,0.388c-2.358,1.345-4.375,3.121-6.364,4.934
						c-1.894,1.725-3.751,3.49-5.638,5.224c-0.872,0.801-1.767,1.574-2.379,2.611c-0.781,1.324-1.119,2.698-0.475,4.178
						c0.413,0.945,0.85,1.88,1.274,2.82c1.364,3.019,2.78,6.015,3.903,9.138c0.513,1.427,1.223,2.753,2.244,3.894
						c1.158,1.295,2.561,2.104,4.306,2.394c3.63,0.601,7.228,1.375,10.79,2.303c1.936,0.505,3.857,1.062,5.844,1.348
						C167.626,104.276,168.95,104.409,170.284,104.265z M124.27,80.515c-0.001-0.007-0.002-0.014-0.002-0.021
						c-2.402,0.239-4.815,0.397-7.202,0.738c-2.559,0.365-4.447,1.754-5.527,4.155c-0.132,0.293-0.273,0.584-0.44,0.859
						c-2.028,3.328-4.097,6.633-6.084,9.986c-1.529,2.581-2.766,5.308-3.69,8.169c-0.089,0.274-0.115,0.527-0.038,0.814
						c0.647,2.416,1.462,4.777,2.502,7.046c1.559,3.404,3.22,6.762,4.812,10.151c0.303,0.644,0.764,1.077,1.364,1.4
						c0.793,0.427,1.65,0.682,2.542,0.63c1.285-0.076,2.565-0.24,3.846-0.389c0.769-0.088,1.53-0.299,2.299-0.314
						c2.154-0.044,4.303-0.154,6.441-0.406c1.821-0.215,3.601-0.615,5.308-1.313c0.981-0.401,1.851-0.91,2.306-1.931
						c0.052-0.115,0.139-0.217,0.208-0.326c2.072-3.301,4.189-6.574,6.204-9.91c1.953-3.232,3.585-6.63,4.892-10.18
						c0.141-0.382,0.191-0.724,0.042-1.118c-0.705-1.849-1.326-3.732-2.096-5.553c-1.308-3.092-2.715-6.142-4.057-9.219
						c-0.473-1.083-1.082-2.066-1.957-2.854c-1.158-1.042-2.473-1.635-4.08-1.196c-0.186,0.051-0.383,0.062-0.575,0.081
						C128.946,80.051,126.607,80.283,124.27,80.515z M119.409,124.448c0,0,0,0.001,0,0.002c-2.166,0.215-4.331,0.43-6.496,0.647
						c-0.213,0.021-0.429,0.05-0.635,0.106c-2.036,0.552-3.593,2.33-3.766,4.449c-0.097,1.17-0.373,2.291-0.651,3.416
						c-0.554,2.234-1.185,4.45-1.697,6.693c-0.522,2.292-0.802,4.612-0.571,6.98c0.08,0.832,0.365,1.522,0.821,2.193
						c1.192,1.75,2.59,3.328,4.024,4.877c1.478,1.594,2.942,3.201,4.406,4.809c1.608,1.767,3.173,3.573,4.825,5.296
						c0.999,1.043,2.167,1.908,3.521,2.471c0.29,0.119,0.622,0.207,0.932,0.199c1.332-0.035,2.663-0.09,3.993-0.178
						c1.289-0.084,2.579-0.189,3.863-0.336c2.974-0.336,5.944-0.711,8.917-1.051c0.793-0.092,1.504-0.359,2.144-0.82
						c1.44-1.037,2.095-2.52,2.375-4.213c0.053-0.318,0.086-0.64,0.161-0.952c0.344-1.422,0.703-2.84,1.052-4.262
						c0.837-3.408,1.593-6.829,1.861-10.34c0.033-0.438,0.038-0.857-0.161-1.262c-0.35-0.713-0.643-1.46-1.051-2.137
						c-0.918-1.523-2.193-2.757-3.406-4.04c-1.183-1.251-2.398-2.479-3.482-3.812c-1.769-2.172-3.542-4.336-5.558-6.285
						c-1.308-1.265-2.738-2.366-4.388-3.154c-0.225-0.107-0.492-0.197-0.732-0.182c-1.826,0.119-3.652,0.25-5.476,0.407
						C122.624,124.111,121.018,124.288,119.409,124.448z M172.882,118.571c0.246,1.711,0.527,3.844,0.865,5.969
						c0.291,1.825,0.662,3.638,0.969,5.46c0.127,0.747,0.459,1.359,0.945,1.931c0.832,0.979,1.771,1.837,2.871,2.481
						c1.504,0.882,3.043,1.706,4.586,2.519c1.412,0.743,2.795,1.521,4.09,2.463c1.328,0.963,2.73,1.813,4.328,2.271
						c0.979,0.279,1.969,0.418,2.984,0.131c0.816-0.229,1.457-0.717,2.078-1.258c2.777-2.42,5.559-4.837,8.342-7.249
						c1.307-1.132,2.52-2.353,3.557-3.737c0.883-1.182,1.467-2.484,1.42-3.998c-0.014-0.404-0.129-0.804-0.154-1.208
						c-0.086-1.46-0.105-2.925-0.24-4.379c-0.234-2.528-0.246-5.076-0.682-7.589c-0.316-1.822-0.494-3.668-0.834-5.484
						c-0.285-1.519-0.705-3.012-1.084-4.512c-0.049-0.192-0.174-0.397-0.324-0.525c-0.426-0.363-0.861-0.722-1.332-1.023
						c-1.773-1.141-3.537-2.302-5.354-3.374c-2.727-1.609-5.484-3.166-8.246-4.711c-0.908-0.508-1.91-0.782-2.963-0.823
						c-0.439-0.017-0.867,0.047-1.234,0.301c-0.797,0.55-1.615,1.075-2.361,1.688c-1.148,0.942-2.203,2.001-3.369,2.917
						c-2.105,1.652-4.131,3.388-5.998,5.304c-1.16,1.19-2.213,2.471-3.082,3.893c-0.119,0.194-0.244,0.427-0.244,0.643
						c-0.002,1.913-0.023,3.827,0.051,5.737C172.54,114.321,172.718,116.231,172.882,118.571z M192.583,146.156
						c-0.273-2.034-1.143-3.429-2.844-4.253c-0.193-0.094-0.373-0.215-0.555-0.329c-1.99-1.245-3.963-2.518-5.975-3.728
						c-2.641-1.59-5.377-3.007-8.152-4.349c-0.797-0.386-1.605-0.429-2.432-0.081c-0.873,0.367-1.754,0.716-2.631,1.072
						c-3.488,1.421-6.988,2.809-10.457,4.271c-3.1,1.309-6.055,2.902-8.828,4.82c-0.242,0.168-0.413,0.354-0.508,0.635
						c-0.553,1.653-1.177,3.285-1.662,4.957c-1.33,4.584-2.031,9.287-2.553,14.022c-0.08,0.721,0.068,1.32,0.488,1.865
						c0.287,0.375,0.6,0.736,0.943,1.057c0.793,0.744,1.744,1.256,2.699,1.76c1.237,0.65,2.515,1.25,3.672,2.025
						c1.916,1.285,3.848,2.541,5.873,3.641c1.658,0.9,3.4,1.58,5.295,1.77c0.371,0.037,0.787,0.012,1.129-0.123
						c3.5-1.389,7.004-2.77,10.477-4.223c3.861-1.615,7.604-3.467,11.111-5.77c0.484-0.318,0.785-0.695,0.936-1.238
						c0.5-1.826,1.084-3.633,1.506-5.476c0.84-3.672,1.6-7.361,2.371-11.047C192.587,146.96,192.563,146.456,192.583,146.156z"/>
					<path d="M151.917,56.876c0.146-0.015,0.294-0.029,0.441-0.044c0,0.009,0.002,0.017,0.002,0.025
						c-0.146,0.015-0.293,0.029-0.439,0.044C151.919,56.893,151.919,56.884,151.917,56.876z"/>
					<path d="M153.758,56.819c0.099-0.01,0.198-0.02,0.298-0.03c0.002,0.009,0.002,0.019,0.004,0.028
						c-0.102,0.01-0.205,0.021-0.307,0.031C153.755,56.838,153.757,56.829,153.758,56.819z"/>
					<path d="M165.562,185.141c0.115-0.012,0.232-0.023,0.35-0.035c0,0.01,0.002,0.02,0.002,0.029
						c-0.107,0.01-0.217,0.021-0.326,0.031C165.579,185.158,165.569,185.148,165.562,185.141z"/>
					
						<linearGradient id="SVGID_3_" gradientUnits="userSpaceOnUse" x1="171.9619" y1="52.0356" x2="155.8857" y2="87.4032" gradientTransform="matrix(0.9951 -0.0989 0.0989 0.9951 -8.1099 32.9143)">
						<stop  offset="0" style="stop-color:#FFFFFF"/>
						<stop  offset="1" style="stop-color:#D0D2D3"/>
					</linearGradient>
					<path fill="url(#SVGID_3_)" d="M170.284,104.265c-1.334,0.144-2.658,0.011-3.979-0.179c-1.986-0.286-3.908-0.843-5.844-1.348
						c-3.563-0.929-7.16-1.702-10.79-2.303c-1.745-0.289-3.147-1.098-4.306-2.394c-1.021-1.141-1.731-2.467-2.244-3.894
						c-1.123-3.123-2.539-6.119-3.903-9.138c-0.425-0.94-0.861-1.875-1.274-2.82c-0.645-1.48-0.307-2.854,0.475-4.178
						c0.612-1.037,1.507-1.81,2.379-2.611c1.887-1.733,3.744-3.499,5.638-5.224c1.989-1.813,4.006-3.588,6.364-4.934
						c0.743-0.423,1.468-0.542,2.287-0.388c2.221,0.418,4.443,0.824,6.668,1.218c3.309,0.585,6.607,1.212,9.857,2.066
						c1.645,0.432,3.256,0.984,4.896,1.429c0.939,0.254,1.65,0.806,2.301,1.479c1.063,1.097,1.861,2.375,2.49,3.751
						c0.762,1.663,1.594,3.313,2.143,5.049c0.664,2.095,1.723,3.983,2.648,5.944c0.529,1.119,0.912,2.273,0.93,3.531
						c0.01,0.558-0.113,1.026-0.469,1.485c-1.629,2.106-3.479,4.002-5.471,5.754c-2.621,2.305-5.289,4.557-7.941,6.827
						c-0.596,0.51-1.354,0.631-2.086,0.794C170.804,104.239,170.54,104.239,170.284,104.265z"/>
					
						<linearGradient id="SVGID_4_" gradientUnits="userSpaceOnUse" x1="129.1597" y1="59.0786" x2="118.085" y2="101.9483" gradientTransform="matrix(0.9951 -0.0989 0.0989 0.9951 -8.1099 32.9143)">
						<stop  offset="0" style="stop-color:#FFFFFF"/>
						<stop  offset="1" style="stop-color:#D0D2D3"/>
					</linearGradient>
					<path fill="url(#SVGID_4_)" d="M124.27,80.515c2.338-0.232,4.677-0.464,7.016-0.698c0.192-0.02,0.39-0.03,0.575-0.081
						c1.607-0.439,2.922,0.154,4.08,1.196c0.875,0.788,1.484,1.771,1.957,2.854c1.342,3.077,2.749,6.127,4.057,9.219
						c0.77,1.821,1.391,3.705,2.096,5.553c0.149,0.394,0.099,0.736-0.042,1.118c-1.307,3.549-2.938,6.948-4.892,10.18
						c-2.015,3.336-4.132,6.609-6.204,9.91c-0.069,0.109-0.156,0.211-0.208,0.326c-0.455,1.021-1.324,1.529-2.306,1.931
						c-1.707,0.698-3.486,1.099-5.308,1.313c-2.139,0.252-4.287,0.362-6.441,0.406c-0.769,0.016-1.53,0.227-2.299,0.314
						c-1.28,0.148-2.561,0.313-3.846,0.389c-0.892,0.052-1.749-0.203-2.542-0.63c-0.601-0.323-1.062-0.757-1.364-1.4
						c-1.592-3.39-3.253-6.747-4.812-10.151c-1.04-2.27-1.854-4.631-2.502-7.046c-0.077-0.287-0.051-0.541,0.038-0.814
						c0.925-2.861,2.161-5.588,3.69-8.169c1.987-3.353,4.056-6.658,6.084-9.986c0.167-0.274,0.309-0.565,0.44-0.859
						c1.08-2.4,2.969-3.79,5.527-4.155c2.387-0.341,4.8-0.5,7.202-0.738C124.268,80.501,124.269,80.508,124.27,80.515z"/>
					
						<linearGradient id="SVGID_5_" gradientUnits="userSpaceOnUse" x1="159.0405" y1="46.1606" x2="142.9639" y2="81.5292" gradientTransform="matrix(0.9951 -0.0989 0.0989 0.9951 -8.1099 32.9143)">
						<stop  offset="0" style="stop-color:#FFFFFF"/>
						<stop  offset="1" style="stop-color:#D0D2D3"/>
					</linearGradient>
					<path fill="url(#SVGID_5_)" d="M119.409,124.448c1.608-0.16,3.215-0.337,4.825-0.476c1.823-0.157,3.649-0.288,5.476-0.407
						c0.24-0.016,0.508,0.074,0.732,0.182c1.649,0.788,3.08,1.89,4.388,3.154c2.016,1.949,3.789,4.113,5.558,6.285
						c1.084,1.332,2.3,2.561,3.482,3.812c1.213,1.283,2.488,2.517,3.406,4.04c0.408,0.677,0.701,1.424,1.051,2.137
						c0.199,0.404,0.194,0.824,0.161,1.262c-0.269,3.511-1.024,6.932-1.861,10.34c-0.349,1.422-0.708,2.84-1.052,4.262
						c-0.075,0.313-0.108,0.634-0.161,0.952c-0.28,1.693-0.935,3.176-2.375,4.213c-0.64,0.461-1.351,0.729-2.144,0.82
						c-2.973,0.34-5.943,0.715-8.917,1.051c-1.284,0.146-2.574,0.252-3.863,0.336c-1.33,0.088-2.661,0.143-3.993,0.178
						c-0.31,0.008-0.642-0.08-0.932-0.199c-1.354-0.563-2.521-1.428-3.521-2.471c-1.652-1.723-3.217-3.529-4.825-5.296
						c-1.464-1.607-2.929-3.215-4.406-4.809c-1.435-1.549-2.832-3.127-4.024-4.877c-0.456-0.671-0.741-1.361-0.821-2.193
						c-0.23-2.368,0.049-4.688,0.571-6.98c0.513-2.243,1.144-4.459,1.697-6.693c0.278-1.125,0.555-2.246,0.651-3.416
						c0.173-2.119,1.729-3.897,3.766-4.449c0.206-0.057,0.422-0.085,0.635-0.106c2.165-0.218,4.33-0.433,6.496-0.647
						C119.409,124.449,119.409,124.448,119.409,124.448z"/>
					
						<linearGradient id="SVGID_6_" gradientUnits="userSpaceOnUse" x1="196.5898" y1="88.5298" x2="180.5135" y2="123.8977" gradientTransform="matrix(0.9951 -0.0989 0.0989 0.9951 -8.1099 32.9143)">
						<stop  offset="0" style="stop-color:#FFFFFF"/>
						<stop  offset="1" style="stop-color:#D0D2D3"/>
					</linearGradient>
					<path fill="url(#SVGID_6_)" d="M172.882,118.571c-0.164-2.34-0.342-4.25-0.416-6.164c-0.074-1.91-0.053-3.824-0.051-5.737
						c0-0.216,0.125-0.449,0.244-0.643c0.869-1.422,1.922-2.702,3.082-3.893c1.867-1.916,3.893-3.652,5.998-5.304
						c1.166-0.917,2.221-1.976,3.369-2.917c0.746-0.612,1.564-1.137,2.361-1.688c0.367-0.253,0.795-0.318,1.234-0.301
						c1.053,0.042,2.055,0.315,2.963,0.823c2.762,1.545,5.52,3.102,8.246,4.711c1.816,1.072,3.58,2.233,5.354,3.374
						c0.471,0.302,0.906,0.661,1.332,1.023c0.15,0.128,0.275,0.333,0.324,0.525c0.379,1.5,0.799,2.994,1.084,4.512
						c0.34,1.816,0.518,3.662,0.834,5.484c0.436,2.513,0.447,5.061,0.682,7.589c0.135,1.454,0.154,2.919,0.24,4.379
						c0.025,0.404,0.141,0.804,0.154,1.208c0.047,1.514-0.537,2.816-1.42,3.998c-1.037,1.385-2.25,2.605-3.557,3.737
						c-2.783,2.412-5.564,4.829-8.342,7.249c-0.621,0.541-1.262,1.028-2.078,1.258c-1.016,0.287-2.006,0.148-2.984-0.131
						c-1.598-0.458-3-1.309-4.328-2.271c-1.295-0.941-2.678-1.72-4.09-2.463c-1.543-0.813-3.082-1.637-4.586-2.519
						c-1.1-0.645-2.039-1.503-2.871-2.481c-0.486-0.571-0.818-1.184-0.945-1.931c-0.307-1.822-0.678-3.635-0.969-5.46
						C173.409,122.415,173.128,120.282,172.882,118.571z"/>
					
						<linearGradient id="SVGID_7_" gradientUnits="userSpaceOnUse" x1="198.3408" y1="64.0273" x2="182.2649" y2="99.3942" gradientTransform="matrix(0.9951 -0.0989 0.0989 0.9951 -8.1099 32.9143)">
						<stop  offset="0" style="stop-color:#FFFFFF"/>
						<stop  offset="1" style="stop-color:#D0D2D3"/>
					</linearGradient>
					<path fill="url(#SVGID_7_)" d="M192.583,146.156c-0.02,0.3,0.004,0.804-0.096,1.28c-0.771,3.686-1.531,7.375-2.371,11.047
						c-0.422,1.843-1.006,3.649-1.506,5.476c-0.15,0.543-0.451,0.92-0.936,1.238c-3.508,2.303-7.25,4.154-11.111,5.77
						c-3.473,1.453-6.977,2.834-10.477,4.223c-0.342,0.135-0.758,0.16-1.129,0.123c-1.895-0.189-3.637-0.869-5.295-1.77
						c-2.025-1.1-3.957-2.355-5.873-3.641c-1.157-0.775-2.435-1.375-3.672-2.025c-0.955-0.504-1.906-1.016-2.699-1.76
						c-0.344-0.32-0.656-0.682-0.943-1.057c-0.42-0.545-0.568-1.145-0.488-1.865c0.521-4.735,1.223-9.438,2.553-14.022
						c0.485-1.672,1.109-3.304,1.662-4.957c0.095-0.281,0.266-0.467,0.508-0.635c2.773-1.918,5.729-3.512,8.828-4.82
						c3.469-1.463,6.969-2.851,10.457-4.271c0.877-0.356,1.758-0.705,2.631-1.072c0.826-0.348,1.635-0.305,2.432,0.081
						c2.775,1.342,5.512,2.759,8.152,4.349c2.012,1.21,3.984,2.482,5.975,3.728c0.182,0.114,0.361,0.235,0.555,0.329
						C191.44,142.728,192.31,144.122,192.583,146.156z"/>
				</g>
			</g>
			<g>
				<path fill="#FFFFFF" d="M154.784,199.805c-19.345,0-37.948-7.158-52.384-20.156c-14.533-13.084-23.604-31.017-25.539-50.493
					c-2.071-20.838,4.097-41.235,17.367-57.434c13.27-16.199,32.055-26.261,52.893-28.333c2.603-0.259,5.241-0.39,7.843-0.39
					c19.346,0,37.947,7.158,52.385,20.155c14.533,13.085,23.604,31.018,25.539,50.494c2.072,20.838-4.096,41.236-17.367,57.435
					c-13.27,16.199-32.055,26.262-52.893,28.332C160.024,199.674,157.386,199.805,154.784,199.805z M154.964,49.816
					c-2.377,0-4.789,0.12-7.169,0.356c-19.026,1.891-36.177,11.078-48.293,25.869c-12.116,14.791-17.747,33.415-15.856,52.44
					c3.655,36.774,34.237,64.507,71.139,64.507c2.377,0,4.789-0.121,7.17-0.357c19.027-1.891,36.176-11.078,48.293-25.869
					c12.117-14.79,17.748-33.413,15.857-52.439C222.448,77.547,191.866,49.816,154.964,49.816z"/>
			</g>
		</g>
		<g>
			<path fill="#FFFFFF" d="M49.008,155.843c6.156,5.56,12.623,10.812,18.897,16.147c-0.446-2.973-1.213-6.057-1.313-9.16
				c-0.207-6.364-0.021-12.739-0.066-19.108c-0.032-4.635-1.906-11.559-3.851-14.52c-4.446,8.461-3.678,17.323-2.449,26.746
				c-7.061-6.965-13.123-14.252-22.521-18.777c0.295,1.213,0.388,1.818,0.589,2.39C40.488,145.8,44.012,151.329,49.008,155.843z"/>
			<path fill="#FFFFFF" d="M90.468,196.068c-4.873-4.109-7.211-9.08-8.416-14.637c-0.654-3.02-1.416-6.021-2.252-9.002
				c-1.58-5.635-4.126-10.814-8.259-15.536c-1.648,8.669,0.761,16.497,4.08,24.853c-5.153-3.031-9.422-5.637-13.789-8.086
				c-4.372-2.451-8.954-4.451-14.756-5.148c4.685,7.01,10.611,11.676,17.526,15.234c8.169,4.203,16.441,8.225,24.676,12.311
				C89.464,196.15,89.745,196.068,90.468,196.068z"/>
			<path fill="#FFFFFF" d="M51.077,138.718c1.406,2.189,2.588,4.508,3.871,6.769c0.782-1.13,1.045-2.132,1.147-3.149
				c0.219-2.164,0.021-4.418,0.587-6.488c1.676-6.129,3.92-12.127,5.389-18.295c0.925-3.885,0.857-7.982,1.235-11.986
				c-0.455-0.058-0.909-0.117-1.364-0.175c-6.357,6.938-8.604,15.389-9.528,25.168c-3.736-9.48-8.219-17.461-17.472-22.166
				c1.239,4.269,2.395,8.619,4.577,12.444C43.021,126.978,47.24,132.747,51.077,138.718z"/>
			<path fill="#FFFFFF" d="M60.859,99.941c3.301-5.976,5.917-12.184,6.788-19.414c-7.784,5.103-11.352,12.453-14.886,19.985
				c-0.666-8.813-2.447-17.106-7.353-24.582c-3.679,14.843,3.265,28.416,5.188,42.276C53.998,112.162,57.472,106.073,60.859,99.941z
				"/>
			<path fill="#FFFFFF" d="M54.803,88.518c2.679-4.957,7.036-8.324,11.471-11.677c2.993-2.263,5.955-4.631,8.539-7.293
				c2.61-2.689,4.738-5.8,7.077-8.727c-0.225-0.192-0.449-0.385-0.674-0.577c-8.668,1.783-14.606,7.536-20.994,13.889
				c0.029-8.694,1.166-16.814-4.654-24.457c-0.802,3.519-2.079,6.486-2.034,9.434c0.12,7.877,0.829,15.746,1.255,23.62
				C54.892,84.654,54.803,86.588,54.803,88.518z"/>
			<path fill="#FFFFFF" d="M81.048,39.759c-10.813,5.294-13.665,14.707-16.126,24.925C73.454,58.056,80.916,51.306,81.048,39.759z"
				/>
			<path fill="#FFFFFF" d="M249.524,155.948c1.229-9.423,1.996-18.285-2.449-26.746c-1.945,2.961-3.818,9.885-3.852,14.52
				c-0.045,6.369,0.141,12.744-0.066,19.108c-0.1,3.104-0.865,6.188-1.313,9.16c6.273-5.336,12.742-10.588,18.896-16.147
				c4.996-4.514,8.521-10.043,10.715-16.282c0.201-0.571,0.295-1.177,0.588-2.39C262.647,141.696,256.585,148.983,249.524,155.948z"
				/>
			<path fill="#FFFFFF" d="M234.128,181.746c3.32-8.355,5.729-16.184,4.08-24.853c-4.133,4.722-6.678,9.901-8.258,15.536
				c-0.836,2.98-1.598,5.982-2.252,9.002c-1.205,5.557-3.543,10.527-8.416,14.637c0.723,0,1.004,0.082,1.189-0.012
				c8.234-4.086,16.506-8.107,24.676-12.311c6.914-3.559,12.842-8.225,17.525-15.234c-5.801,0.697-10.383,2.697-14.754,5.148
				C243.55,176.109,239.282,178.715,234.128,181.746z"/>
			<path fill="#FFFFFF" d="M247.808,105.393c-0.455,0.058-0.91,0.117-1.365,0.175c0.379,4.003,0.311,8.101,1.236,11.986
				c1.469,6.168,3.713,12.166,5.389,18.295c0.566,2.07,0.367,4.324,0.586,6.488c0.104,1.018,0.365,2.02,1.148,3.149
				c1.283-2.261,2.465-4.579,3.871-6.769c3.836-5.971,8.057-11.74,11.559-17.878c2.182-3.825,3.336-8.176,4.576-12.444
				c-9.254,4.705-13.736,12.686-17.473,22.166C256.411,120.782,254.165,112.331,247.808,105.393z"/>
			<path fill="#FFFFFF" d="M242.103,80.527c0.871,7.23,3.486,13.438,6.787,19.414c3.389,6.132,6.861,12.221,10.262,18.265
				c1.924-13.86,8.867-27.433,5.189-42.276c-4.906,7.476-6.688,15.769-7.354,24.582C253.454,92.98,249.888,85.63,242.103,80.527z"/>
			<path fill="#FFFFFF" d="M243.476,76.841c4.436,3.354,8.793,6.72,11.471,11.677c0-1.93-0.088-3.864,0.016-5.788
				c0.426-7.875,1.135-15.743,1.254-23.62c0.045-2.948-1.232-5.915-2.033-9.434c-5.82,7.643-4.684,15.763-4.654,24.457
				c-6.387-6.354-12.326-12.106-20.994-13.889c-0.225,0.192-0.449,0.385-0.674,0.577c2.338,2.926,4.467,6.037,7.076,8.727
				C237.521,72.21,240.483,74.578,243.476,76.841z"/>
			<path fill="#FFFFFF" d="M244.827,64.684c-2.461-10.218-5.313-19.63-16.125-24.925C228.835,51.306,236.296,58.056,244.827,64.684z
				"/>
		</g>
		<g>
			<polygon fill="#FFFFFF" points="154.875,0 160.726,11.853 173.806,13.753 164.341,22.979 166.575,36.007 154.875,29.856 
				143.175,36.007 145.409,22.979 135.944,13.753 149.025,11.853 			"/>
			<polygon fill="#FFFFFF" points="193.222,13.862 194.067,22.875 201.972,27.288 193.661,30.878 191.907,39.759 185.925,32.965 
				176.937,34.041 181.55,26.251 177.747,18.036 186.581,20.016 			"/>
			<polygon fill="#FFFFFF" points="116.528,13.862 115.683,22.875 107.778,27.288 116.089,30.878 117.843,39.759 123.825,32.965 
				132.813,34.041 128.2,26.251 132.002,18.036 123.168,20.016 			"/>
		</g>
		<polygon fill="#1F57A7" points="32.337,256.363 32.382,256.35 32.314,256.351 44.635,242.54 0,243.122 14.869,273.296 
			54.946,272.774 62.589,256.363 		"/>
		<polygon fill="#1F57A7" points="259.407,295.475 50.146,295.475 32.337,256.363 277.218,256.363 		"/>
		<g>
			<polygon fill="#FFFFFF" points="66.958,270.539 68.958,274.592 73.43,275.242 70.194,278.396 70.958,282.85 66.958,280.746 
				62.959,282.85 63.723,278.396 60.486,275.242 64.958,274.592 			"/>
			<polygon fill="#FFFFFF" points="242.792,270.539 244.792,274.592 249.263,275.242 246.026,278.396 246.792,282.85 
				242.792,280.746 238.792,282.85 239.556,278.396 236.319,275.242 240.792,274.592 			"/>
		</g>
		<text transform="matrix(1 0 0 1 68.1489 237.3418)" fill="#FFFFFF" font-family="'Consolas-Bold'" font-size="35.0531">COPA FIFA</text>
		<g>
			<g>
				<g>
					<path fill="#FFFFFF" d="M110.102,280.281c0.78,0.476,2.398,1.005,3.652,1.005c1.283,0,1.813-0.418,1.813-1.116
						c0-0.724-0.418-1.058-1.98-1.589c-2.844-0.948-3.931-2.482-3.903-4.099c0-2.565,2.174-4.489,5.549-4.489
						c1.589,0,2.984,0.391,3.82,0.809l-0.725,2.928c-0.613-0.335-1.813-0.78-2.956-0.78c-1.031,0-1.618,0.417-1.618,1.087
						c0,0.669,0.531,1.005,2.204,1.589c2.593,0.892,3.653,2.23,3.68,4.211c0,2.566-1.98,4.435-5.884,4.435
						c-1.784,0-3.374-0.418-4.405-0.977L110.102,280.281z"/>
					<path fill="#FFFFFF" d="M127.78,266.646v3.681h3.04v3.124h-3.04v4.935c0,1.646,0.418,2.399,1.673,2.399
						c0.585,0,0.864-0.027,1.255-0.111l0.028,3.207c-0.53,0.195-1.562,0.363-2.733,0.363c-1.366,0-2.509-0.475-3.207-1.173
						c-0.78-0.809-1.171-2.119-1.171-4.044v-5.576h-1.813v-3.124h1.813v-2.537L127.78,266.646z"/>
					<path fill="#FFFFFF" d="M137.206,278.497c0.112,1.757,1.869,2.594,3.849,2.594c1.45,0,2.621-0.195,3.764-0.585l0.558,2.872
						c-1.394,0.585-3.096,0.865-4.936,0.865c-4.628,0-7.278-2.678-7.278-6.944c0-3.458,2.147-7.277,6.888-7.277
						c4.406,0,6.079,3.429,6.079,6.804c0,0.724-0.084,1.366-0.139,1.672H137.206z M142.198,275.598c0-1.031-0.446-2.761-2.398-2.761
						c-1.785,0-2.51,1.646-2.621,2.761H142.198z"/>
					<path fill="#FFFFFF" d="M149.979,283.963V273.45h-1.813v-3.124h1.813v-0.529c0-1.645,0.501-3.458,1.701-4.572
						c1.088-1.004,2.538-1.366,3.792-1.366c0.92,0,1.645,0.139,2.23,0.278l-0.166,3.262c-0.362-0.109-0.809-0.195-1.367-0.195
						c-1.395,0-1.98,1.088-1.98,2.428v0.695h2.734v3.124h-2.706v10.513H149.979z"/>
					<path fill="#FFFFFF" d="M171.144,280.673c0,1.283,0.056,2.536,0.223,3.29h-3.82l-0.25-1.366h-0.084
						c-0.892,1.087-2.286,1.674-3.903,1.674c-2.761,0-4.407-2.009-4.407-4.184c0-3.541,3.179-5.214,8.004-5.214v-0.168
						c0-0.753-0.391-1.784-2.482-1.784c-1.394,0-2.873,0.474-3.765,1.031l-0.781-2.732c0.948-0.53,2.816-1.227,5.298-1.227
						c4.546,0,5.967,2.677,5.967,5.911V280.673z M167.044,277.521c-2.231,0-3.959,0.53-3.959,2.147c0,1.088,0.725,1.617,1.672,1.617
						c1.033,0,1.924-0.698,2.203-1.562c0.057-0.224,0.084-0.474,0.084-0.726V277.521z"/>
					<path fill="#FFFFFF" d="M175.327,274.678c0-1.701-0.056-3.123-0.112-4.352h3.68l0.196,1.896h0.084
						c0.557-0.893,1.923-2.201,4.21-2.201c2.789,0,4.879,1.867,4.879,5.883v8.059h-4.237v-7.556c0-1.758-0.615-2.957-2.147-2.957
						c-1.172,0-1.87,0.809-2.176,1.591c-0.112,0.278-0.14,0.668-0.14,1.058v7.864h-4.238V274.678z"/>
					<path fill="#FFFFFF" d="M192.477,283.963v-13.637h4.239v13.637H192.477z"/>
					<path fill="#FFFFFF" d="M200.926,274.678c0-1.701-0.056-3.123-0.112-4.352h3.681l0.195,1.896h0.084
						c0.558-0.893,1.924-2.201,4.211-2.201c2.788,0,4.88,1.867,4.88,5.883v8.059h-4.239v-7.556c0-1.758-0.614-2.957-2.147-2.957
						c-1.171,0-1.869,0.809-2.176,1.591c-0.112,0.278-0.139,0.668-0.139,1.058v7.864h-4.238V274.678z"/>
					<path fill="#FFFFFF" d="M218.076,283.963v-13.637h4.239v13.637H218.076z"/>
				</g>
			</g>
			<g>
				<path fill="#DBDBDB" d="M102.013,285.52c-4.417,0.481-8.357-0.367-10.283-1.997c-0.199,0.904-0.121,1.73,0.288,2.406
					c1.417,2.347,6.272,2.052,11.151-0.564C102.79,285.424,102.404,285.477,102.013,285.52z"/>
			</g>
			<g>
				<path fill="#DBDBDB" d="M104.259,287.784c-3.042,0.34-5.765-0.182-7.164-1.228c-0.177,0.686-0.131,1.302,0.177,1.79
					c1,1.581,4.417,1.204,7.826-0.725C104.829,287.689,104.537,287.752,104.259,287.784z"/>
			</g>
			<path fill="#A8A8A8" d="M97.095,286.557c-0.081,0.313-0.112,0.61-0.096,0.888c0.427-0.05,0.872-0.126,1.328-0.229
				C97.85,287.029,97.433,286.808,97.095,286.557z"/>
			<path fill="#DBDBDB" d="M99.671,272.486c-3.466,2.093-7.014,2.565-7.925,1.056c-0.605-1.002,0.11-2.63,1.676-4.224
				c-2.966,2.031-4.646,4.607-3.811,5.994c0.912,1.508,4.46,1.034,7.926-1.058c1.16-0.7,2.163-1.493,2.951-2.296
				C100.226,272.14,99.954,272.315,99.671,272.486z"/>
			<g>
				<path fill="#DBDBDB" d="M98.501,280.487c-3.872,0.11-7.341-0.732-9.25-2.022c-0.474,1.106-0.478,2.141-0.022,2.896
					c1.234,2.043,5.792,1.589,10.485-0.938C99.317,280.453,98.911,280.476,98.501,280.487z"/>
			</g>
			<path fill="#FFFFFF" d="M89.538,273.688c0,0,0.463-1.578,2.834-3.55c1.764-1.469,2.63-1.8,3.193-2.104l0.234-0.353l-0.554,0.065
				c0,0-1.942,0.758-3.742,2.764C90.066,272.109,89.538,273.688,89.538,273.688z"/>
			<path fill="#FFFFFF" d="M104.88,271.886l-2.439-0.95c-0.352,0.11-0.709,0.23-1.077,0.371
				c-5.407,2.063-10.474,6.649-11.317,10.239c-0.225,0.955-0.126,1.745,0.24,2.35l0.173,0.278c0.872,1.248,1.195,1.578,2.181,2.461
				c-0.637-0.616-0.883-1.522-0.605-2.706c0.812-3.458,5.692-7.873,10.9-9.861c0.16-0.062,0.318-0.117,0.473-0.174L104.88,271.886z"
				/>
			<path fill="#FFFFFF" d="M95.678,270.364l-1.447-0.271c-2.791,1.904-4.964,4.379-5.453,6.457
				c-0.043,0.182-0.071,0.355-0.087,0.521c-0.026,0.396-0.034,0.93-0.036,1.327c0.035,0.812,0.055,0.925,0.245,2.013l0.105,0.446
				c-0.121-0.468-0.116-1.016,0.029-1.634c0.561-2.385,3.062-5.225,6.269-7.405L95.678,270.364z"/>
			<path fill="#FFFFFF" d="M97.22,286.763c0.545-2.323,3.659-5.25,7.121-6.773l1.365-2.19l-2.655-0.711
				c-4.287,1.936-8.11,5.557-8.787,8.438c-0.344,1.466,0.186,2.479,1.333,2.952c0.232,0.095,0.549,0.205,0.784,0.292
				c0.989,0.296,1.243,0.352,2.271,0.51c0.167,0.019,0.372,0.033,0.564,0.049C97.679,289.176,96.866,288.271,97.22,286.763z"/>
			<g>
				<path fill="#DBDBDB" d="M105.732,287.438c-0.398,0.137-0.891,0.251-1.355,0.326c0.242-0.033,0.49-0.084,0.721-0.143
					c-0.997,0.563-1.991,0.99-2.928,1.277c-0.018,0.039-0.038,0.08-0.053,0.116c0.543-0.052,1.128-0.139,1.804-0.395l0.069,0.006
					c0.297-0.114,0.318-0.116,0.851-0.357c0.265-0.125,0.265-0.125,0.741-0.389c0.272-0.158,0.272-0.158,0.681-0.423
					c0.122-0.083,0.127-0.077,0.648-0.469c0.159-0.124,0.207-0.163,0.363-0.297C106.733,287.007,106.194,287.279,105.732,287.438z"
					/>
				<path opacity="0.22" fill="#179BD7" d="M103.416,287.854c-0.33,0-0.559-0.046-0.585-0.161c-0.04,0.065-0.077,0.128-0.115,0.191
					C102.946,287.879,103.18,287.867,103.416,287.854z"/>
				<path opacity="0.22" fill="#179BD7" d="M104.234,287.786c0.009,0,0.017-0.001,0.024-0.002c0.029-0.003,0.061-0.011,0.091-0.015
					C104.311,287.775,104.273,287.781,104.234,287.786z"/>
			</g>
			<path fill="#A8A8A8" d="M104.259,287.784c-0.008,0.001-0.016,0.002-0.024,0.002c-0.302,0.044-0.585,0.067-0.819,0.067
				c-0.236,0.014-0.47,0.025-0.7,0.03c-0.218,0.364-0.408,0.709-0.545,1.016c0.937-0.287,1.932-0.714,2.928-1.277
				c-0.231,0.059-0.479,0.109-0.721,0.143c-0.009,0.002-0.018,0.003-0.027,0.005C104.319,287.773,104.288,287.781,104.259,287.784z"
				/>
			<path fill="#FFFFFF" d="M103.273,287.662c-0.091-0.134-0.121-0.312-0.069-0.531c0-0.005,0.003-0.012,0.005-0.016
				c0.001-0.006,0.003-0.01,0.004-0.016c0.188-0.708,1.111-1.584,2.154-2.068l0.87-1.783l-1.987-0.4
				c-2.125,1.143-3.919,2.949-4.264,4.419c-0.411,1.749,1.388,2.354,4.019,1.354l0.021-0.007c0.297-0.113,0.317-0.122,0.848-0.365
				c0.027-0.011,0.048-0.021,0.07-0.032C104.137,288.256,103.5,288.063,103.273,287.662z"/>
		</g>
	</g>
</g>
</svg>
