<?xml version="1.0" encoding="utf-8"?>
<!-- Generator: Adobe Illustrator 16.0.0, SVG Export Plug-In . SVG Version: 6.00 Build 0)  -->
<!DOCTYPE svg PUBLIC "-//W3C//DTD SVG 1.1//EN" "http://www.w3.org/Graphics/SVG/1.1/DTD/svg11.dtd">
<svg version="1.1" id="Layer_1" xmlns="http://www.w3.org/2000/svg" xmlns:xlink="http://www.w3.org/1999/xlink" x="0px" y="0px"
	 width="5.886px" height="10.562px" viewBox="0 0 5.886 10.562" enable-background="new 0 0 5.886 10.562" xml:space="preserve">
<g>
	<path display="none" fill="#FFFFFF" d="M-9.557,0.253h1.094l3.333,7.769l3.387-7.769h1.094l-4.375,10.056h-0.219L-9.557,0.253z"/>
	<path fill="#FFFFFF" d="M0,8.436l0.854-0.513C1.456,9.03,2.151,9.584,2.939,9.584c0.337,0,0.654-0.079,0.95-0.236
		S4.412,8.98,4.566,8.716s0.232-0.544,0.232-0.841c0-0.337-0.114-0.667-0.342-0.991C4.143,6.437,3.568,5.899,2.734,5.271
		c-0.838-0.633-1.36-1.091-1.565-1.374C0.813,3.422,0.636,2.91,0.636,2.358c0-0.438,0.105-0.836,0.314-1.196
		s0.505-0.644,0.885-0.851S2.629,0,3.076,0c0.474,0,0.917,0.117,1.33,0.352s0.849,0.667,1.309,1.295L4.895,2.27
		C4.516,1.768,4.194,1.438,3.927,1.278S3.37,1.039,3.056,1.039c-0.406,0-0.737,0.123-0.995,0.369S1.675,1.958,1.675,2.317
		c0,0.219,0.045,0.431,0.137,0.636s0.257,0.428,0.499,0.67C2.443,3.75,2.875,4.085,3.609,4.628C4.48,5.271,5.077,5.842,5.4,6.344
		s0.485,1.005,0.485,1.511c0,0.729-0.277,1.363-0.831,1.9s-1.227,0.807-2.02,0.807c-0.611,0-1.165-0.163-1.661-0.489
		S0.419,9.201,0,8.436z"/>
</g>
</svg>
