<?xml version="1.0" encoding="utf-8"?>
<!-- Generator: Adobe Illustrator 16.0.0, SVG Export Plug-In . SVG Version: 6.00 Build 0)  -->
<!DOCTYPE svg PUBLIC "-//W3C//DTD SVG 1.1//EN" "http://www.w3.org/Graphics/SVG/1.1/DTD/svg11.dtd">
<svg version="1.1" id="Layer_1" xmlns="http://www.w3.org/2000/svg" xmlns:xlink="http://www.w3.org/1999/xlink" x="0px" y="0px"
	 width="19.066px" height="33.792px" viewBox="-12.788 -11.615 19.066 33.792"
	 enable-background="new -12.788 -11.615 19.066 33.792" xml:space="preserve">
<path fill="#FFFFFF" d="M-12.788,15.716l2.768-1.665c1.949,3.588,4.201,5.382,6.754,5.382c1.09,0,2.115-0.256,3.077-0.763
	c0.962-0.51,1.696-1.191,2.195-2.05c0.5-0.854,0.748-1.763,0.748-2.724c0-1.092-0.367-2.161-1.107-3.211
	C0.633,9.239-1.227,7.496-3.93,5.463c-2.714-2.051-4.407-3.535-5.071-4.452c-1.151-1.542-1.725-3.199-1.725-4.985
	c0-1.421,0.339-2.708,1.016-3.876c0.677-1.167,1.636-2.083,2.866-2.755c1.231-0.67,2.572-1.009,4.021-1.009
	c1.533,0,2.97,0.38,4.311,1.143c1.335,0.759,2.747,2.16,4.24,4.194L3.069-4.26C1.841-5.885,0.798-6.954-0.069-7.473
	c-0.86-0.521-1.803-0.776-2.816-0.776c-1.317,0-2.39,0.398-3.225,1.196c-0.835,0.797-1.252,1.781-1.252,2.944
	c0,0.709,0.149,1.396,0.446,2.06c0.297,0.665,0.832,1.385,1.617,2.17c0.427,0.412,1.825,1.497,4.206,3.255
	C1.728,5.463,3.657,7.31,4.708,8.936c1.043,1.629,1.57,3.258,1.57,4.897c0,2.358-0.899,4.412-2.69,6.151
	c-1.797,1.741-3.979,2.618-6.546,2.618c-1.98,0-3.774-0.529-5.381-1.586C-9.947,19.96-11.431,18.193-12.788,15.716z"/>
</svg>
