<?xml version="1.0" encoding="utf-8"?>
<!-- Generator: Adobe Illustrator 16.0.0, SVG Export Plug-In . SVG Version: 6.00 Build 0)  -->
<!DOCTYPE svg PUBLIC "-//W3C//DTD SVG 1.1//EN" "http://www.w3.org/Graphics/SVG/1.1/DTD/svg11.dtd">
<svg version="1.1" id="Layer_1" xmlns="http://www.w3.org/2000/svg" xmlns:xlink="http://www.w3.org/1999/xlink" x="0px" y="0px"
	 width="378px" height="506.5px" viewBox="0 -24.5 378 506.5" enable-background="new 0 -24.5 378 506.5" xml:space="preserve">
<g id="Background">
</g>
<g id="Objects">
	<g>
		<g>
			<g>
				
					<linearGradient id="SVGID_1_" gradientUnits="userSpaceOnUse" x1="-121.396" y1="181.1143" x2="57.8809" y2="181.1143" gradientTransform="matrix(1 0 0 -1 219.04 585.3398)">
					<stop  offset="0.3565" style="stop-color:#9F6B21"/>
					<stop  offset="0.6435" style="stop-color:#C09847"/>
					<stop  offset="1" style="stop-color:#FFF1A6"/>
				</linearGradient>
				<path fill="url(#SVGID_1_)" d="M160.072,363.67c4.524,8.525,1.218,24.047-9.37,39.119c-10.589,15.07-28.458,29.691-53.058,36.42
					c0,0,5.541,1.393,19.522,2.785c13.986,1.393,36.41,2.787,70.176,2.787s56.162-1.396,70.115-2.787
					c13.953-1.393,19.464-2.785,19.464-2.785c-24.601-6.729-42.467-21.35-53.056-36.42c-10.59-15.072-13.896-30.594-9.372-39.119
					h-27.21H160.072z"/>
				
					<linearGradient id="SVGID_2_" gradientUnits="userSpaceOnUse" x1="-118.584" y1="181.1138" x2="55.0713" y2="181.1138" gradientTransform="matrix(1 0 0 -1 219.04 585.3398)">
					<stop  offset="0.3565" style="stop-color:#9F6B21"/>
					<stop  offset="0.6435" style="stop-color:#C09847"/>
					<stop  offset="1" style="stop-color:#FFF1A6"/>
				</linearGradient>
				<path fill="url(#SVGID_2_)" d="M160.829,363.67c4.398,8.58,1.184,24.203-9.109,39.373
					c-10.248,15.064-27.512,29.684-51.264,36.506c0.351,0.025,5.776,1.316,18.916,2.604c13.823,1.321,35.585,2.629,67.971,2.629
					c32.384,0,54.119-1.308,67.91-2.629c13.111-1.287,18.509-2.576,18.858-2.603c-23.752-6.824-41.016-21.44-51.264-36.508
					c-10.134-14.816-13.383-30.066-9.231-38.664c0.012-0.27-8.539-0.51-8.47-0.709h-17.503H160.829L160.829,363.67z"/>
				
					<linearGradient id="SVGID_3_" gradientUnits="userSpaceOnUse" x1="-115.7729" y1="181.1138" x2="52.2617" y2="181.1138" gradientTransform="matrix(1 0 0 -1 219.04 585.3398)">
					<stop  offset="0.3565" style="stop-color:#9F6B21"/>
					<stop  offset="0.6435" style="stop-color:#C09847"/>
					<stop  offset="1" style="stop-color:#FFF1A6"/>
				</linearGradient>
				<path fill="url(#SVGID_3_)" d="M161.586,363.67c4.272,8.637,1.15,24.359-8.849,39.627c-9.906,15.062-26.566,29.678-49.47,36.594
					c0.702,0.052,6.013,1.238,18.309,2.422c13.66,1.25,34.761,2.47,65.767,2.47c31.002,0,52.075-1.22,65.705-2.47
					c12.271-1.182,17.554-2.368,18.254-2.42c-22.905-6.918-39.563-21.534-49.471-36.596c-9.679-14.561-12.868-29.537-9.092-38.207
					c0.022-0.539-7.628-1.02-7.49-1.42h-17.245H161.586L161.586,363.67z"/>
				
					<linearGradient id="SVGID_4_" gradientUnits="userSpaceOnUse" x1="-112.9619" y1="181.1138" x2="49.4512" y2="181.1138" gradientTransform="matrix(1 0 0 -1 219.04 585.3398)">
					<stop  offset="0.3565" style="stop-color:#9F6B21"/>
					<stop  offset="0.6435" style="stop-color:#C09847"/>
					<stop  offset="1" style="stop-color:#FFF1A6"/>
				</linearGradient>
				<path fill="url(#SVGID_4_)" d="M162.343,363.67c4.147,8.691,1.116,24.516-8.588,39.881c-9.565,15.058-25.62,29.67-47.677,36.683
					c1.054,0.075,6.249,1.159,17.703,2.237c13.497,1.181,33.935,2.312,63.562,2.312c29.621,0,50.032-1.129,63.5-2.31
					c11.429-1.077,16.599-2.161,17.648-2.237c-22.06-7.013-38.112-21.627-47.679-36.685c-9.223-14.303-12.354-29.008-8.951-37.752
					c0.035-0.809-6.717-1.526-6.512-2.129h-16.987H162.343L162.343,363.67z"/>
				
					<linearGradient id="SVGID_5_" gradientUnits="userSpaceOnUse" x1="-110.1499" y1="181.1138" x2="46.6416" y2="181.1138" gradientTransform="matrix(1 0 0 -1 219.04 585.3398)">
					<stop  offset="0.3565" style="stop-color:#9F6B21"/>
					<stop  offset="0.6435" style="stop-color:#C09847"/>
					<stop  offset="1" style="stop-color:#FFF1A6"/>
				</linearGradient>
				<path fill="url(#SVGID_5_)" d="M163.1,363.67c4.021,8.748,1.082,24.672-8.327,40.135c-9.225,15.052-24.674,29.664-45.883,36.771
					c1.404,0.102,6.484,1.084,17.097,2.057c13.334,1.107,33.109,2.15,61.356,2.15c28.239,0,47.989-1.041,61.296-2.15
					c10.586-0.971,15.644-1.953,17.043-2.055c-21.211-7.107-36.66-21.719-45.886-36.771c-8.767-14.047-11.841-28.479-8.813-37.295
					c0.049-1.078-5.805-2.039-5.529-2.84h-16.73L163.1,363.67L163.1,363.67z"/>
				
					<linearGradient id="SVGID_6_" gradientUnits="userSpaceOnUse" x1="-107.3389" y1="181.1143" x2="43.8301" y2="181.1143" gradientTransform="matrix(1 0 0 -1 219.04 585.3398)">
					<stop  offset="0.3565" style="stop-color:#9F6B21"/>
					<stop  offset="0.6435" style="stop-color:#C09847"/>
					<stop  offset="1" style="stop-color:#FFF1A6"/>
				</linearGradient>
				<path fill="url(#SVGID_6_)" d="M163.856,363.67c3.896,8.803,1.049,24.828-8.066,40.389
					c-8.883,15.048-23.728,29.656-44.089,36.855c1.755,0.127,6.72,1.008,16.489,1.875c13.172,1.039,32.285,1.992,59.152,1.992
					c26.857,0,45.946-0.953,59.09-1.99c9.746-0.867,14.688-1.746,16.438-1.873c-20.364-7.201-35.209-21.811-44.093-36.859
					c-8.311-13.791-11.325-27.95-8.672-36.84c0.06-1.348-4.896-2.547-4.551-3.549h-16.473H163.856L163.856,363.67z"/>
				
					<linearGradient id="SVGID_7_" gradientUnits="userSpaceOnUse" x1="-104.5278" y1="181.1143" x2="41.0205" y2="181.1143" gradientTransform="matrix(1 0 0 -1 219.04 585.3398)">
					<stop  offset="0.3565" style="stop-color:#9F6B21"/>
					<stop  offset="0.6435" style="stop-color:#C09847"/>
					<stop  offset="1" style="stop-color:#FFF1A6"/>
				</linearGradient>
				<path fill="url(#SVGID_7_)" d="M164.614,363.67c3.769,8.857,1.014,24.984-7.807,40.644
					c-8.542,15.043-22.782,29.647-42.295,36.942c2.106,0.152,6.956,0.93,15.883,1.691c13.008,0.969,31.46,1.834,56.947,1.834
					c25.477,0,43.902-0.865,56.885-1.83c8.904-0.762,13.732-1.539,15.834-1.691c-19.519-7.295-33.759-21.901-42.301-36.946
					c-7.855-13.533-10.813-27.423-8.531-36.384c0.07-1.616-3.983-3.059-3.57-4.26h-16.216H164.614L164.614,363.67z"/>
				
					<linearGradient id="SVGID_8_" gradientUnits="userSpaceOnUse" x1="-101.7158" y1="181.1147" x2="38.21" y2="181.1147" gradientTransform="matrix(1 0 0 -1 219.04 585.3398)">
					<stop  offset="0.3565" style="stop-color:#9F6B21"/>
					<stop  offset="0.6435" style="stop-color:#C09847"/>
					<stop  offset="1" style="stop-color:#FFF1A6"/>
				</linearGradient>
				<path fill="url(#SVGID_8_)" d="M165.371,363.67c3.643,8.914,0.98,25.141-7.546,40.896c-8.2,15.036-21.836,29.643-40.501,37.03
					c2.457,0.179,7.191,0.853,15.275,1.511c12.846,0.896,30.636,1.674,54.743,1.674c24.094,0,41.859-0.775,54.68-1.672
					c8.063-0.656,12.777-1.33,15.229-1.509c-18.671-7.391-32.307-21.995-40.507-37.034c-7.399-13.277-10.298-26.896-8.392-35.929
					c0.082-1.887-3.074-3.565-2.592-4.969h-15.958L165.371,363.67L165.371,363.67z"/>
				
					<linearGradient id="SVGID_9_" gradientUnits="userSpaceOnUse" x1="-98.9043" y1="181.1147" x2="35.3994" y2="181.1147" gradientTransform="matrix(1 0 0 -1 219.04 585.3398)">
					<stop  offset="0.3565" style="stop-color:#9F6B21"/>
					<stop  offset="0.6435" style="stop-color:#C09847"/>
					<stop  offset="1" style="stop-color:#FFF1A6"/>
				</linearGradient>
				<path fill="url(#SVGID_9_)" d="M166.128,363.67c3.517,8.969,0.946,25.297-7.285,41.15c-7.859,15.032-20.89,29.635-38.707,37.119
					c2.808,0.202,7.427,0.774,14.669,1.325c12.683,0.826,29.811,1.517,52.538,1.517c22.712,0,39.816-0.688,52.474-1.513
					c7.224-0.551,11.824-1.122,14.623-1.325c-17.822-7.484-30.854-22.088-38.713-37.123c-6.943-13.021-9.785-26.365-8.252-35.472
					c0.094-2.155-2.162-4.077-1.61-5.68h-15.701L166.128,363.67L166.128,363.67z"/>
				
					<linearGradient id="SVGID_10_" gradientUnits="userSpaceOnUse" x1="-96.0933" y1="181.1162" x2="32.5898" y2="181.1162" gradientTransform="matrix(1 0 0 -1 219.04 585.3398)">
					<stop  offset="0.3565" style="stop-color:#9F6B21"/>
					<stop  offset="0.6435" style="stop-color:#C09847"/>
					<stop  offset="1" style="stop-color:#FFF1A6"/>
				</linearGradient>
				<path fill="url(#SVGID_10_)" d="M166.885,363.67c3.392,9.025,0.912,25.453-7.024,41.404
					c-7.519,15.026-19.943,29.629-36.914,37.205c3.159,0.229,7.663,0.698,14.063,1.146c12.52,0.754,28.984,1.355,50.333,1.355
					c21.331,0,37.773-0.601,50.269-1.354c6.382-0.444,10.869-0.914,14.019-1.141c-16.976-7.582-29.401-22.183-36.921-37.213
					c-6.486-12.765-9.271-25.838-8.111-35.017c0.105-2.426-1.252-4.586-0.632-6.389h-15.442h-23.639V363.67z"/>
				
					<linearGradient id="SVGID_11_" gradientUnits="userSpaceOnUse" x1="-93.2822" y1="181.1147" x2="29.7783" y2="181.1147" gradientTransform="matrix(1 0 0 -1 219.04 585.3398)">
					<stop  offset="0.3565" style="stop-color:#9F6B21"/>
					<stop  offset="0.6435" style="stop-color:#C09847"/>
					<stop  offset="1" style="stop-color:#FFF1A6"/>
				</linearGradient>
				<path fill="url(#SVGID_11_)" d="M167.642,363.67c3.266,9.08,0.879,25.609-6.764,41.658
					c-7.177,15.022-18.998,29.621-35.12,37.293c3.511,0.254,7.899,0.621,13.456,0.963c12.356,0.686,28.16,1.197,48.129,1.197
					c19.949,0,35.729-0.513,48.063-1.193c5.539-0.34,9.912-0.707,13.412-0.959c-16.129-7.676-27.951-22.272-35.129-37.301
					c-6.031-12.508-8.756-25.31-7.972-34.56c0.118-2.694-0.34-5.096,0.349-7.1h-15.186L167.642,363.67L167.642,363.67z"/>
				
					<linearGradient id="SVGID_12_" gradientUnits="userSpaceOnUse" x1="-90.4702" y1="181.1147" x2="26.9688" y2="181.1147" gradientTransform="matrix(1 0 0 -1 219.04 585.3398)">
					<stop  offset="0.3565" style="stop-color:#9F6B21"/>
					<stop  offset="0.6435" style="stop-color:#C09847"/>
					<stop  offset="1" style="stop-color:#FFF1A6"/>
				</linearGradient>
				<path fill="url(#SVGID_12_)" d="M161.896,405.582c-6.836,15.02-18.052,29.615-33.326,37.381
					c13.848,1.004,32.997,1.818,58.773,1.818c25.734,0,44.845-0.812,58.666-1.812c-15.282-7.77-26.5-22.364-33.336-37.389
					c-7.35-16.146-9.644-32.775-6.503-41.912h-37.771C171.538,372.807,169.243,389.436,161.896,405.582z"/>
			</g>
			
				<linearGradient id="SVGID_13_" gradientUnits="userSpaceOnUse" x1="-94.8184" y1="151.0234" x2="21.3755" y2="194.4261" gradientTransform="matrix(1 0 0 -1 219.04 585.3398)">
				<stop  offset="0" style="stop-color:#FFF1A6"/>
				<stop  offset="0.3565" style="stop-color:#C09847"/>
				<stop  offset="0.6435" style="stop-color:#9F6B21"/>
			</linearGradient>
			<path fill="url(#SVGID_13_)" d="M161.896,405.582c-6.836,15.02-18.052,29.615-33.326,37.381
				c13.848,1.004,32.997,1.818,58.773,1.818c25.734,0,44.845-0.812,58.666-1.812c-15.282-7.77-26.5-22.364-33.336-37.389
				c-7.35-16.146-9.644-32.775-6.503-41.912h-37.771C171.538,372.807,169.243,389.436,161.896,405.582z"/>
			
				<linearGradient id="SVGID_14_" gradientUnits="userSpaceOnUse" x1="-244.3159" y1="951.8359" x2="-163.3276" y2="951.8359" gradientTransform="matrix(0 1 1 0 -796.1465 607.9878)">
				<stop  offset="0" style="stop-color:#DA9F26"/>
				<stop  offset="1" style="stop-color:#FFFFA7"/>
			</linearGradient>
			<path fill="url(#SVGID_14_)" d="M127.421,442.881c10.855,0.812,25.098,1.51,43.399,1.779
				c12.182-21.267,15.733-62.482,11.317-80.988h-13.992C171.877,383.695,157.538,425.869,127.421,442.881z"/>
			
				<linearGradient id="SVGID_15_" gradientUnits="userSpaceOnUse" x1="-121.395" y1="135.166" x2="214.8791" y2="135.166" gradientTransform="matrix(1 0 0 -1 219.04 585.3398)">
				<stop  offset="0" style="stop-color:#281809"/>
				<stop  offset="0.0182" style="stop-color:#844D24"/>
				<stop  offset="0.0788" style="stop-color:#E8BA65"/>
				<stop  offset="0.116" style="stop-color:#BA8A43"/>
				<stop  offset="0.1469" style="stop-color:#9A682B"/>
				<stop  offset="0.1636" style="stop-color:#8E5B22"/>
				<stop  offset="0.166" style="stop-color:#8F5C23"/>
				<stop  offset="0.2506" style="stop-color:#B48E47"/>
				<stop  offset="0.3305" style="stop-color:#D2B564"/>
				<stop  offset="0.4036" style="stop-color:#E7D178"/>
				<stop  offset="0.4675" style="stop-color:#F3E285"/>
				<stop  offset="0.5152" style="stop-color:#F8E889"/>
				<stop  offset="0.9455" style="stop-color:#E6B964"/>
			</linearGradient>
			<path fill="url(#SVGID_15_)" d="M97.645,454.873c0,0,22.166,6.266,89.698,6.266c67.533,0,89.579-6.266,89.579-6.266v-15.664
				c0,0-22.046,5.572-89.579,5.572c-67.532,0-89.698-5.572-89.698-5.572V454.873z"/>
			<g>
				
					<linearGradient id="SVGID_16_" gradientUnits="userSpaceOnUse" x1="-59.1123" y1="254.5664" x2="-4.3975" y2="254.5664" gradientTransform="matrix(1 0 0 -1 219.04 585.3398)">
					<stop  offset="0.3565" style="stop-color:#9F6B21"/>
					<stop  offset="0.6435" style="stop-color:#C09847"/>
					<stop  offset="1" style="stop-color:#FFF1A6"/>
				</linearGradient>
				<path fill="url(#SVGID_16_)" d="M187.672,358.1c-10.716,0-17.651-1.133-21.909-2.262c-4.257-1.131-5.835-2.264-5.835-2.264
					c10.649-16.244,12.369-28.775,11.428-37.246c-0.942-8.471-4.546-12.881-4.546-12.881h20.473h20.473c0,0-3.604,4.41-4.542,12.881
					c-0.942,8.471,0.778,21.002,11.429,37.246c0,0-1.387,1.133-5.449,2.264C205.127,356.967,198.389,358.1,187.672,358.1z"/>
				
					<linearGradient id="SVGID_17_" gradientUnits="userSpaceOnUse" x1="-58.3301" y1="254.5674" x2="-5.1768" y2="254.5674" gradientTransform="matrix(1 0 0 -1 219.04 585.3398)">
					<stop  offset="0.3565" style="stop-color:#9F6B21"/>
					<stop  offset="0.6435" style="stop-color:#C09847"/>
					<stop  offset="1" style="stop-color:#FFF1A6"/>
				</linearGradient>
				<path fill="url(#SVGID_17_)" d="M202.766,316.404c-0.916,8.516,0.756,21.112,11.098,37.44c-0.105,0.021-1.482,1.072-5.309,2.117
					c-4.035,1.074-10.594,2.137-20.883,2.137c-10.304,0-17.055-1.063-21.276-2.141c-4.012-1.047-5.573-2.1-5.686-2.121
					c10.338-16.324,12.008-28.92,11.093-37.434c-0.915-8.521-4.418-12.957-4.418-12.957h19.897h19.897
					C207.18,303.447,203.678,307.883,202.766,316.404z"/>
				
					<linearGradient id="SVGID_18_" gradientUnits="userSpaceOnUse" x1="-57.5488" y1="254.5645" x2="-5.9561" y2="254.5645" gradientTransform="matrix(1 0 0 -1 219.04 585.3398)">
					<stop  offset="0.3565" style="stop-color:#9F6B21"/>
					<stop  offset="0.6435" style="stop-color:#C09847"/>
					<stop  offset="1" style="stop-color:#FFF1A6"/>
				</linearGradient>
				<path fill="url(#SVGID_18_)" d="M202.316,316.479c-0.89,8.563,0.733,21.228,10.768,37.642c-0.21,0.041-1.58,1.01-5.168,1.971
					c-4.004,1.019-10.382,2.01-20.244,2.01c-9.892,0-16.458-0.995-20.645-2.018c-3.767-0.965-5.311-1.936-5.536-1.98
					c10.026-16.403,11.647-29.063,10.76-37.622c-0.89-8.57-4.291-13.031-4.291-13.031h19.322h19.321
					C206.604,303.447,203.203,307.908,202.316,316.479z"/>
				
					<linearGradient id="SVGID_19_" gradientUnits="userSpaceOnUse" x1="-56.7661" y1="254.5664" x2="-6.7334" y2="254.5664" gradientTransform="matrix(1 0 0 -1 219.04 585.3398)">
					<stop  offset="0.3565" style="stop-color:#9F6B21"/>
					<stop  offset="0.6435" style="stop-color:#C09847"/>
					<stop  offset="1" style="stop-color:#FFF1A6"/>
				</linearGradient>
				<path fill="url(#SVGID_19_)" d="M201.87,316.555c-0.862,8.609,0.711,21.34,10.437,37.836c-0.315,0.064-1.678,0.949-5.027,1.826
					c-3.975,0.961-10.172,1.883-19.606,1.883c-9.479,0-15.86-0.928-20.012-1.895c-3.521-0.881-5.049-1.771-5.387-1.842
					c9.715-16.484,11.286-29.205,10.425-37.81c-0.862-8.619-4.163-13.106-4.163-13.106h18.747h18.747
					C206.029,303.447,202.729,307.936,201.87,316.555z"/>
				
					<linearGradient id="SVGID_20_" gradientUnits="userSpaceOnUse" x1="-55.9849" y1="254.5664" x2="-7.5127" y2="254.5664" gradientTransform="matrix(1 0 0 -1 219.04 585.3398)">
					<stop  offset="0.3565" style="stop-color:#9F6B21"/>
					<stop  offset="0.6435" style="stop-color:#C09847"/>
					<stop  offset="1" style="stop-color:#FFF1A6"/>
				</linearGradient>
				<path fill="url(#SVGID_20_)" d="M201.422,316.631c-0.835,8.654,0.688,21.451,10.105,38.033
					c-0.422,0.084-1.773,0.887-4.887,1.678c-3.945,0.906-9.961,1.758-18.97,1.758c-9.066,0-15.264-0.858-19.38-1.771
					c-3.276-0.799-4.786-1.607-5.236-1.701c9.403-16.563,10.925-29.348,10.09-37.996c-0.836-8.67-4.035-13.184-4.035-13.184h18.172
					h18.172C205.454,303.447,202.256,307.961,201.422,316.631z"/>
				
					<linearGradient id="SVGID_21_" gradientUnits="userSpaceOnUse" x1="-55.2021" y1="254.5664" x2="-8.291" y2="254.5664" gradientTransform="matrix(1 0 0 -1 219.04 585.3398)">
					<stop  offset="0.3565" style="stop-color:#9F6B21"/>
					<stop  offset="0.6435" style="stop-color:#C09847"/>
					<stop  offset="1" style="stop-color:#FFF1A6"/>
				</linearGradient>
				<path fill="url(#SVGID_21_)" d="M200.975,316.707c-0.809,8.699,0.666,21.563,9.774,38.229c-0.524,0.107-1.87,0.826-4.746,1.533
					c-3.914,0.851-9.75,1.631-18.331,1.631c-8.654,0-14.667-0.789-18.747-1.649c-3.031-0.715-4.524-1.443-5.087-1.56
					c9.091-16.645,10.563-29.491,9.756-38.184c-0.81-8.721-3.908-13.26-3.908-13.26h17.597h17.597
					C204.879,303.447,201.781,307.986,200.975,316.707z"/>
				
					<linearGradient id="SVGID_22_" gradientUnits="userSpaceOnUse" x1="-54.4209" y1="254.5664" x2="-9.0693" y2="254.5664" gradientTransform="matrix(1 0 0 -1 219.04 585.3398)">
					<stop  offset="0.3565" style="stop-color:#9F6B21"/>
					<stop  offset="0.6435" style="stop-color:#C09847"/>
					<stop  offset="1" style="stop-color:#FFF1A6"/>
				</linearGradient>
				<path fill="url(#SVGID_22_)" d="M200.525,316.783c-0.78,8.744,0.645,21.674,9.445,38.424c-0.632,0.129-1.969,0.766-4.604,1.389
					c-3.886,0.793-9.54,1.504-17.694,1.504c-8.242,0-14.07-0.721-18.115-1.526c-2.786-0.633-4.263-1.279-4.938-1.418
					c8.78-16.726,10.202-29.636,9.422-38.371c-0.783-8.771-3.779-13.336-3.779-13.336h17.021h17.021
					C204.303,303.447,201.309,308.012,200.525,316.783z"/>
				
					<linearGradient id="SVGID_23_" gradientUnits="userSpaceOnUse" x1="-53.6392" y1="254.5664" x2="-9.8467" y2="254.5664" gradientTransform="matrix(1 0 0 -1 219.04 585.3398)">
					<stop  offset="0.3565" style="stop-color:#9F6B21"/>
					<stop  offset="0.6435" style="stop-color:#C09847"/>
					<stop  offset="1" style="stop-color:#FFF1A6"/>
				</linearGradient>
				<path fill="url(#SVGID_23_)" d="M200.079,316.857c-0.755,8.793,0.621,21.789,9.114,38.623c-0.736,0.147-2.065,0.702-4.465,1.239
					c-3.854,0.738-9.33,1.379-17.058,1.379c-7.83,0-13.474-0.651-17.482-1.403c-2.541-0.55-4.001-1.115-4.788-1.277
					c8.468-16.805,9.841-29.777,9.088-38.561c-0.757-8.818-3.652-13.41-3.652-13.41h16.445h16.444
					C203.729,303.447,200.833,308.039,200.079,316.857z"/>
				
					<linearGradient id="SVGID_24_" gradientUnits="userSpaceOnUse" x1="-52.8569" y1="254.5664" x2="-10.625" y2="254.5664" gradientTransform="matrix(1 0 0 -1 219.04 585.3398)">
					<stop  offset="0.3565" style="stop-color:#9F6B21"/>
					<stop  offset="0.6435" style="stop-color:#C09847"/>
					<stop  offset="1" style="stop-color:#FFF1A6"/>
				</linearGradient>
				<path fill="url(#SVGID_24_)" d="M199.631,316.934c-0.729,8.839,0.6,21.9,8.784,38.818c-0.842,0.172-2.162,0.643-4.324,1.096
					c-3.823,0.683-9.118,1.252-16.419,1.252c-7.418,0-12.877-0.584-16.851-1.28c-2.296-0.468-3.738-0.951-4.638-1.138
					c8.156-16.885,9.479-29.922,8.753-38.748c-0.73-8.868-3.524-13.485-3.524-13.485h15.87h15.87
					C203.152,303.447,200.359,308.064,199.631,316.934z"/>
				
					<linearGradient id="SVGID_25_" gradientUnits="userSpaceOnUse" x1="-52.0742" y1="254.5664" x2="-11.4033" y2="254.5664" gradientTransform="matrix(1 0 0 -1 219.04 585.3398)">
					<stop  offset="0.3565" style="stop-color:#9F6B21"/>
					<stop  offset="0.6435" style="stop-color:#C09847"/>
					<stop  offset="1" style="stop-color:#FFF1A6"/>
				</linearGradient>
				<path fill="url(#SVGID_25_)" d="M199.184,317.01c-0.699,8.883,0.576,22.013,8.453,39.017c-0.947,0.19-2.259,0.58-4.184,0.946
					c-3.795,0.627-8.908,1.127-15.781,1.127c-7.005,0-12.279-0.516-16.218-1.159c-2.051-0.384-3.477-0.787-4.488-0.994
					c7.845-16.965,9.118-30.064,8.418-38.937c-0.703-8.92-3.396-13.563-3.396-13.563h15.295h15.295
					C202.577,303.447,199.886,308.09,199.184,317.01z"/>
				
					<linearGradient id="SVGID_26_" gradientUnits="userSpaceOnUse" x1="-51.2939" y1="254.5664" x2="-12.1826" y2="254.5664" gradientTransform="matrix(1 0 0 -1 219.04 585.3398)">
					<stop  offset="0.3565" style="stop-color:#9F6B21"/>
					<stop  offset="0.6435" style="stop-color:#C09847"/>
					<stop  offset="1" style="stop-color:#FFF1A6"/>
				</linearGradient>
				<path fill="url(#SVGID_26_)" d="M198.734,317.086c-0.672,8.928,0.555,22.123,8.123,39.211c-1.051,0.213-2.355,0.521-4.043,0.803
					c-3.765,0.57-8.696,1-15.144,1c-6.593,0-11.683-0.444-15.586-1.036c-1.806-0.302-3.214-0.623-4.339-0.854
					c7.533-17.045,8.758-30.209,8.085-39.123c-0.678-8.971-3.27-13.639-3.27-13.639h14.72h14.72
					C202.002,303.447,199.411,308.115,198.734,317.086z"/>
				
					<linearGradient id="SVGID_27_" gradientUnits="userSpaceOnUse" x1="-50.5112" y1="254.5664" x2="-12.96" y2="254.5664" gradientTransform="matrix(1 0 0 -1 219.04 585.3398)">
					<stop  offset="0.3565" style="stop-color:#9F6B21"/>
					<stop  offset="0.6435" style="stop-color:#C09847"/>
					<stop  offset="1" style="stop-color:#FFF1A6"/>
				</linearGradient>
				<path fill="url(#SVGID_27_)" d="M168.529,356.473c4.306,0.886,10.468,1.627,19.143,1.627c8.355,0,14.27-0.688,18.408-1.528
					c-7.262-17.172-8.438-30.435-7.792-39.408c0.649-9.021,3.14-13.715,3.14-13.715h-28.29c0,0,2.491,4.694,3.142,13.715
					C176.926,326.121,175.751,339.348,168.529,356.473z"/>
			</g>
			
				<linearGradient id="SVGID_28_" gradientUnits="userSpaceOnUse" x1="-51.2271" y1="254.5674" x2="-12.25" y2="254.5674" gradientTransform="matrix(1 0 0 -1 219.04 585.3398)">
				<stop  offset="0" style="stop-color:#FFF1A6"/>
				<stop  offset="0.3565" style="stop-color:#C09847"/>
				<stop  offset="0.6435" style="stop-color:#9F6B21"/>
			</linearGradient>
			<path fill="url(#SVGID_28_)" d="M167.813,356.324c4.321,0.947,10.701,1.774,19.858,1.774c8.854,0,14.962-0.774,19.119-1.682
				c-12.075-28.846-7.703-47.043-5.571-52.971h-27.875C175.478,309.369,179.838,327.533,167.813,356.324z"/>
			
				<linearGradient id="SVGID_29_" gradientUnits="userSpaceOnUse" x1="-252.8921" y1="1001.5176" x2="-198.4644" y2="1001.5176" gradientTransform="matrix(0 1 1 0 -824.8965 556.3413)">
				<stop  offset="0" style="stop-color:#DA9F26"/>
				<stop  offset="1" style="stop-color:#FFFFA7"/>
			</linearGradient>
			<path fill="url(#SVGID_29_)" d="M167.356,356.229c3.022,0.689,7.124,1.324,12.549,1.648c6.563-24.637,6.609-42.979,5.329-54.428
				h-12.296C175.081,308.998,179.95,327.146,167.356,356.229z"/>
			
				<linearGradient id="SVGID_30_" gradientUnits="userSpaceOnUse" x1="-64.3799" y1="224.4609" x2="152.8823" y2="224.4609" gradientTransform="matrix(1 0 0 -1 219.04 585.3398)">
				<stop  offset="0" style="stop-color:#281809"/>
				<stop  offset="0.0182" style="stop-color:#844D24"/>
				<stop  offset="0.0788" style="stop-color:#E8BA65"/>
				<stop  offset="0.116" style="stop-color:#BA8A43"/>
				<stop  offset="0.1469" style="stop-color:#9A682B"/>
				<stop  offset="0.1636" style="stop-color:#8E5B22"/>
				<stop  offset="0.166" style="stop-color:#8F5C23"/>
				<stop  offset="0.2506" style="stop-color:#B48E47"/>
				<stop  offset="0.3305" style="stop-color:#D2B564"/>
				<stop  offset="0.4036" style="stop-color:#E7D178"/>
				<stop  offset="0.4675" style="stop-color:#F3E285"/>
				<stop  offset="0.5152" style="stop-color:#F8E889"/>
				<stop  offset="0.9455" style="stop-color:#E6B964"/>
			</linearGradient>
			<path fill="url(#SVGID_30_)" d="M187.286,368.211c19.844,0,32.623-2.16,32.623-8.348c0-5.467-5.282-6.316-5.282-6.316
				c-6.05,2.918-20.993,2.965-27.343,2.965c-6.348,0-21.296-0.047-27.343-2.965c0,0-5.281,0.851-5.281,6.316
				C154.66,366.051,167.439,368.211,187.286,368.211z"/>
			<g>
				
					<linearGradient id="SVGID_31_" gradientUnits="userSpaceOnUse" x1="-154.2749" y1="418.9375" x2="90.7617" y2="418.9375" gradientTransform="matrix(1 0 0 -1 219.04 585.3398)">
					<stop  offset="0.3565" style="stop-color:#9F6B21"/>
					<stop  offset="0.6435" style="stop-color:#C09847"/>
					<stop  offset="1" style="stop-color:#FFF1A6"/>
				</linearGradient>
				<path fill="url(#SVGID_31_)" d="M309.482,35.94h-244.4c0,0-1.05,14.879,0.672,40.354c1.722,25.475,6.222,61.544,17.325,103.925
					c8.678,33.125,25.363,62.284,44.563,83.167c19.196,20.882,40.902,33.48,59.631,33.48c18.722,0,40.438-12.601,59.642-33.48
					c19.204-20.883,35.896-50.042,44.575-83.167c11.103-42.381,15.6-78.452,17.324-103.926
					C310.536,50.819,309.482,35.94,309.482,35.94z"/>
				
					<linearGradient id="SVGID_32_" gradientUnits="userSpaceOnUse" x1="-151.4907" y1="418.9375" x2="87.9775" y2="418.9375" gradientTransform="matrix(1 0 0 -1 219.04 585.3398)">
					<stop  offset="0.3565" style="stop-color:#9F6B21"/>
					<stop  offset="0.6435" style="stop-color:#C09847"/>
					<stop  offset="1" style="stop-color:#FFF1A6"/>
				</linearGradient>
				<path fill="url(#SVGID_32_)" d="M306.053,76.293c1.684-25.475,0.652-40.354,0.652-40.354H67.859c0,0-1.026,14.879,0.656,40.354
					c1.683,25.475,6.08,61.544,16.932,103.925c8.48,33.125,24.787,62.284,43.551,83.167c18.76,20.881,39.973,33.48,58.275,33.48
					c18.297,0,39.52-12.6,58.286-33.48c18.769-20.883,35.082-50.042,43.563-83.167C299.973,137.839,304.367,101.768,306.053,76.293z
					"/>
				
					<linearGradient id="SVGID_33_" gradientUnits="userSpaceOnUse" x1="-148.7061" y1="418.9375" x2="85.1938" y2="418.9375" gradientTransform="matrix(1 0 0 -1 219.04 585.3398)">
					<stop  offset="0.3565" style="stop-color:#9F6B21"/>
					<stop  offset="0.6435" style="stop-color:#C09847"/>
					<stop  offset="1" style="stop-color:#FFF1A6"/>
				</linearGradient>
				<path fill="url(#SVGID_33_)" d="M303.29,76.293c1.646-25.475,0.64-40.354,0.64-40.354H70.637c0,0-1.003,14.879,0.641,40.354
					s5.939,61.544,16.538,103.925c8.283,33.125,24.211,62.284,42.537,83.167c18.324,20.881,39.044,33.48,56.922,33.48
					c17.87,0,38.6-12.6,56.931-33.48c18.331-20.883,34.265-50.042,42.549-83.167C297.352,137.839,301.645,101.768,303.29,76.293z"/>
				
					<linearGradient id="SVGID_34_" gradientUnits="userSpaceOnUse" x1="-145.9219" y1="418.9375" x2="82.4077" y2="418.9375" gradientTransform="matrix(1 0 0 -1 219.04 585.3398)">
					<stop  offset="0.3565" style="stop-color:#9F6B21"/>
					<stop  offset="0.6435" style="stop-color:#C09847"/>
					<stop  offset="1" style="stop-color:#FFF1A6"/>
				</linearGradient>
				<path fill="url(#SVGID_34_)" d="M300.527,76.293c1.604-25.475,0.623-40.354,0.623-40.354H73.414c0,0-0.979,14.879,0.625,40.354
					s5.798,61.544,16.145,103.925c8.086,33.125,23.635,62.284,41.524,83.167c17.889,20.881,38.115,33.48,55.566,33.48
					c17.445,0,37.682-12.6,55.576-33.48c17.895-20.883,33.449-50.042,41.535-83.167C294.73,137.839,298.922,101.768,300.527,76.293z
					"/>
				
					<linearGradient id="SVGID_35_" gradientUnits="userSpaceOnUse" x1="-143.1377" y1="418.9375" x2="79.6245" y2="418.9375" gradientTransform="matrix(1 0 0 -1 219.04 585.3398)">
					<stop  offset="0.3565" style="stop-color:#9F6B21"/>
					<stop  offset="0.6435" style="stop-color:#C09847"/>
					<stop  offset="1" style="stop-color:#FFF1A6"/>
				</linearGradient>
				<path fill="url(#SVGID_35_)" d="M297.768,76.293c1.564-25.475,0.607-40.354,0.607-40.354H76.191c0,0-0.955,14.879,0.609,40.354
					c1.565,25.475,5.656,61.544,15.751,103.925c7.889,33.125,23.059,62.284,40.512,83.167c17.452,20.881,37.186,33.48,54.211,33.48
					c17.021,0,36.763-12.6,54.22-33.48c17.459-20.883,32.635-50.042,40.523-83.167C292.111,137.839,296.199,101.768,297.768,76.293z
					"/>
				
					<linearGradient id="SVGID_36_" gradientUnits="userSpaceOnUse" x1="-140.353" y1="418.9375" x2="76.8403" y2="418.9375" gradientTransform="matrix(1 0 0 -1 219.04 585.3398)">
					<stop  offset="0.3565" style="stop-color:#9F6B21"/>
					<stop  offset="0.6435" style="stop-color:#C09847"/>
					<stop  offset="1" style="stop-color:#FFF1A6"/>
				</linearGradient>
				<path fill="url(#SVGID_36_)" d="M295.005,76.293c1.526-25.475,0.593-40.354,0.593-40.354H78.969c0,0-0.932,14.879,0.594,40.354
					s5.515,61.544,15.357,103.925c7.691,33.125,22.482,62.284,39.498,83.167c17.017,20.881,36.257,33.48,52.857,33.48
					c16.595,0,35.843-12.6,52.864-33.48c17.021-20.883,31.818-50.042,39.51-83.167C289.491,137.839,293.477,101.768,295.005,76.293z
					"/>
				
					<linearGradient id="SVGID_37_" gradientUnits="userSpaceOnUse" x1="-137.5693" y1="418.9375" x2="74.0557" y2="418.9375" gradientTransform="matrix(1 0 0 -1 219.04 585.3398)">
					<stop  offset="0.3565" style="stop-color:#9F6B21"/>
					<stop  offset="0.6435" style="stop-color:#C09847"/>
					<stop  offset="1" style="stop-color:#FFF1A6"/>
				</linearGradient>
				<path fill="url(#SVGID_37_)" d="M292.242,76.293c1.488-25.475,0.578-40.354,0.578-40.354H81.745c0,0-0.907,14.879,0.578,40.354
					c1.488,25.475,5.375,61.544,14.964,103.925c7.494,33.125,21.906,62.284,38.486,83.167c16.58,20.881,35.327,33.48,51.502,33.48
					c16.168,0,34.924-12.6,51.509-33.48c16.586-20.883,31.003-50.042,38.497-83.167C286.87,137.839,290.753,101.768,292.242,76.293z
					"/>
				
					<linearGradient id="SVGID_38_" gradientUnits="userSpaceOnUse" x1="-134.7852" y1="418.9375" x2="71.2715" y2="418.9375" gradientTransform="matrix(1 0 0 -1 219.04 585.3398)">
					<stop  offset="0.3565" style="stop-color:#9F6B21"/>
					<stop  offset="0.6435" style="stop-color:#C09847"/>
					<stop  offset="1" style="stop-color:#FFF1A6"/>
				</linearGradient>
				<path fill="url(#SVGID_38_)" d="M289.48,76.293c1.449-25.475,0.563-40.354,0.563-40.354H84.522c0,0-0.884,14.879,0.563,40.354
					c1.449,25.475,5.233,61.544,14.57,103.925c7.297,33.125,21.33,62.284,37.473,83.167c16.145,20.881,34.398,33.48,50.148,33.48
					c15.744,0,34.003-12.6,50.154-33.48c16.147-20.883,30.187-50.042,37.482-83.167C284.25,137.839,288.029,101.768,289.48,76.293z"
					/>
				
					<linearGradient id="SVGID_39_" gradientUnits="userSpaceOnUse" x1="-132.0005" y1="418.9375" x2="68.4878" y2="418.9375" gradientTransform="matrix(1 0 0 -1 219.04 585.3398)">
					<stop  offset="0.3565" style="stop-color:#9F6B21"/>
					<stop  offset="0.6435" style="stop-color:#C09847"/>
					<stop  offset="1" style="stop-color:#FFF1A6"/>
				</linearGradient>
				<path fill="url(#SVGID_39_)" d="M286.719,76.293c1.41-25.475,0.549-40.354,0.549-40.354H87.3c0,0-0.86,14.879,0.547,40.354
					c1.41,25.475,5.092,61.544,14.177,103.925c7.1,33.125,20.754,62.284,36.46,83.167c15.708,20.881,33.469,33.48,48.793,33.48
					c15.319,0,33.084-12.6,48.798-33.48c15.713-20.883,29.37-50.042,36.471-83.167C281.63,137.839,285.309,101.768,286.719,76.293z"
					/>
				
					<linearGradient id="SVGID_40_" gradientUnits="userSpaceOnUse" x1="-129.2158" y1="418.9375" x2="65.7031" y2="418.9375" gradientTransform="matrix(1 0 0 -1 219.04 585.3398)">
					<stop  offset="0.3565" style="stop-color:#9F6B21"/>
					<stop  offset="0.6435" style="stop-color:#C09847"/>
					<stop  offset="1" style="stop-color:#FFF1A6"/>
				</linearGradient>
				<path fill="url(#SVGID_40_)" d="M283.957,76.293c1.37-25.475,0.533-40.354,0.533-40.354H90.077c0,0-0.836,14.879,0.531,40.354
					c1.371,25.475,4.95,61.544,13.783,103.925c6.902,33.125,20.178,62.284,35.447,83.167c15.272,20.881,32.54,33.48,47.438,33.48
					c14.894,0,32.167-12.6,47.442-33.48c15.276-20.883,28.558-50.042,35.458-83.167C279.01,137.839,282.585,101.768,283.957,76.293z
					"/>
				
					<linearGradient id="SVGID_41_" gradientUnits="userSpaceOnUse" x1="-126.4321" y1="418.9375" x2="62.9185" y2="418.9375" gradientTransform="matrix(1 0 0 -1 219.04 585.3398)">
					<stop  offset="0.3565" style="stop-color:#9F6B21"/>
					<stop  offset="0.6435" style="stop-color:#C09847"/>
					<stop  offset="1" style="stop-color:#FFF1A6"/>
				</linearGradient>
				<path fill="url(#SVGID_41_)" d="M281.193,76.293c1.332-25.475,0.521-40.354,0.521-40.354H92.854c0,0-0.813,14.879,0.516,40.354
					c1.332,25.475,4.81,61.544,13.39,103.925c6.705,33.125,19.602,62.284,34.434,83.167c14.837,20.881,31.611,33.48,46.084,33.48
					c14.467,0,31.248-12.6,46.087-33.48c14.84-20.883,27.74-50.042,34.443-83.167C276.389,137.839,279.861,101.768,281.193,76.293z"
					/>
				
					<linearGradient id="SVGID_42_" gradientUnits="userSpaceOnUse" x1="-123.6475" y1="418.9375" x2="60.1357" y2="418.9375" gradientTransform="matrix(1 0 0 -1 219.04 585.3398)">
					<stop  offset="0.3565" style="stop-color:#9F6B21"/>
					<stop  offset="0.6435" style="stop-color:#C09847"/>
					<stop  offset="1" style="stop-color:#FFF1A6"/>
				</linearGradient>
				<path fill="url(#SVGID_42_)" d="M278.938,35.94H95.632c0,0-0.789,14.879,0.5,40.354c1.293,25.475,4.668,61.544,12.996,103.925
					c6.508,33.125,19.025,62.284,33.421,83.167c14.4,20.882,30.682,33.48,44.729,33.48c14.042,0,30.328-12.601,44.731-33.48
					c14.403-20.883,26.925-50.042,33.433-83.167c8.328-42.381,11.699-78.452,12.992-103.926S278.938,35.94,278.938,35.94z"/>
			</g>
			
				<linearGradient id="SVGID_43_" gradientUnits="userSpaceOnUse" x1="-120.1421" y1="418.9375" x2="56.6279" y2="418.9375" gradientTransform="matrix(1 0 0 -1 219.04 585.3398)">
				<stop  offset="0" style="stop-color:#FFF1A6"/>
				<stop  offset="0.3565" style="stop-color:#C09847"/>
				<stop  offset="0.6435" style="stop-color:#9F6B21"/>
			</linearGradient>
			<path fill="url(#SVGID_43_)" d="M275.439,35.94H99.128c0,0-0.76,14.879,0.482,40.354c1.243,25.475,4.489,61.544,12.5,103.925
				c6.261,33.125,18.296,62.284,32.146,83.167c13.851,20.882,29.511,33.48,43.021,33.48c13.507,0,29.171-12.601,43.024-33.48
				c13.854-20.883,25.896-50.042,32.156-83.167c8.011-42.381,11.254-78.452,12.496-103.926
				C276.197,50.819,275.439,35.94,275.439,35.94z"/>
			
				<linearGradient id="SVGID_44_" gradientUnits="userSpaceOnUse" x1="-76.8662" y1="549.4004" x2="-76.8662" y2="287.6585" gradientTransform="matrix(1 0 0 -1 219.04 585.3398)">
				<stop  offset="0" style="stop-color:#FFFFA7"/>
				<stop  offset="1" style="stop-color:#DA9F26"/>
			</linearGradient>
			<path fill="url(#SVGID_44_)" d="M152.546,180.22c-7.404-84.761-6-144.28-6-144.28H97.304c0,0-3.101,59.519,13.25,144.28
				c12.781,66.247,49.146,116.647,76.724,116.647l0,0C174.795,296.861,158.331,246.465,152.546,180.22z"/>
			
				<linearGradient id="SVGID_45_" gradientUnits="userSpaceOnUse" x1="-153.9331" y1="549.4004" x2="90.417" y2="549.4004" gradientTransform="matrix(1 0 0 -1 219.04 585.3398)">
				<stop  offset="0" style="stop-color:#FFFFA7"/>
				<stop  offset="1" style="stop-color:#DA9F26"/>
			</linearGradient>
			<ellipse fill="url(#SVGID_45_)" cx="187.282" cy="35.94" rx="122.175" ry="6.769"/>
			
				<linearGradient id="SVGID_46_" gradientUnits="userSpaceOnUse" x1="-144.0581" y1="550.3945" x2="80.543" y2="550.3945" gradientTransform="matrix(1 0 0 -1 219.04 585.3398)">
				<stop  offset="0.3565" style="stop-color:#9F6B21"/>
				<stop  offset="0.6435" style="stop-color:#C09847"/>
				<stop  offset="1" style="stop-color:#FFF1A6"/>
			</linearGradient>
			<path fill="url(#SVGID_46_)" d="M74.982,35.277c16.192,2.056,55.514,3.456,112.302,3.456c56.784,0,96.104-1.4,112.299-3.456
				c-16.192-2.056-55.515-4.119-112.299-4.119C130.496,31.159,91.175,33.222,74.982,35.277z"/>
			
				<linearGradient id="SVGID_47_" gradientUnits="userSpaceOnUse" x1="-62.854" y1="287.6602" x2="91.2141" y2="287.6602" gradientTransform="matrix(1 0 0 -1 219.04 585.3398)">
				<stop  offset="0" style="stop-color:#281809"/>
				<stop  offset="0.0182" style="stop-color:#844D24"/>
				<stop  offset="0.0788" style="stop-color:#E8BA65"/>
				<stop  offset="0.116" style="stop-color:#BA8A43"/>
				<stop  offset="0.1469" style="stop-color:#9A682B"/>
				<stop  offset="0.1636" style="stop-color:#8E5B22"/>
				<stop  offset="0.166" style="stop-color:#8F5C23"/>
				<stop  offset="0.2506" style="stop-color:#B48E47"/>
				<stop  offset="0.3305" style="stop-color:#D2B564"/>
				<stop  offset="0.4036" style="stop-color:#E7D178"/>
				<stop  offset="0.4675" style="stop-color:#F3E285"/>
				<stop  offset="0.5152" style="stop-color:#F8E889"/>
				<stop  offset="0.9455" style="stop-color:#E6B964"/>
			</linearGradient>
			<path fill="url(#SVGID_47_)" d="M187.286,305.469c18.916,0,31.098-3.074,31.098-9.262c0-5.467-5.034-6.316-5.034-6.316
				c-5.766,2.92-20.012,3.879-26.064,3.879c-6.052,0-20.3-0.959-26.065-3.879c0,0-5.034,0.851-5.034,6.316
				C156.185,302.395,168.366,305.469,187.286,305.469z"/>
			
				<linearGradient id="SVGID_48_" gradientUnits="userSpaceOnUse" x1="-60.8633" y1="292.1553" x2="-2.6475" y2="292.1553" gradientTransform="matrix(1 0 0 -1 219.04 585.3398)">
				<stop  offset="0.0545" style="stop-color:#E6B964"/>
				<stop  offset="0.4848" style="stop-color:#F8E889"/>
				<stop  offset="0.5325" style="stop-color:#F3E285"/>
				<stop  offset="0.5964" style="stop-color:#E7D178"/>
				<stop  offset="0.6695" style="stop-color:#D2B564"/>
				<stop  offset="0.7494" style="stop-color:#B48E47"/>
				<stop  offset="0.834" style="stop-color:#8F5C23"/>
				<stop  offset="0.8364" style="stop-color:#8E5B22"/>
				<stop  offset="0.8531" style="stop-color:#9A682B"/>
				<stop  offset="0.884" style="stop-color:#BA8A43"/>
				<stop  offset="0.9212" style="stop-color:#E8BA65"/>
				<stop  offset="0.9818" style="stop-color:#844D24"/>
				<stop  offset="1" style="stop-color:#281809"/>
			</linearGradient>
			<path fill="url(#SVGID_48_)" d="M213.412,289.891c-5.768,2.92-20.01,3.879-26.065,3.879c-6.052,0-20.3-0.959-26.065-3.879
				c0,0-1.686,0.293-3.105,1.592c4.537,3.332,14.925,4.996,29.021,4.996c14.27,0,24.747-1.703,29.194-5.117
				C214.998,290.158,213.412,289.891,213.412,289.891z"/>
			<g>
				
					<linearGradient id="SVGID_49_" gradientUnits="userSpaceOnUse" x1="-452.0479" y1="1049.9551" x2="-243.4839" y2="1049.9551" gradientTransform="matrix(0.0776 0.997 0.997 -0.0776 -958.5569 603.1087)">
					<stop  offset="0" style="stop-color:#FFF1A6"/>
					<stop  offset="0.3565" style="stop-color:#C09847"/>
					<stop  offset="0.6435" style="stop-color:#9F6B21"/>
				</linearGradient>
				<path fill="url(#SVGID_49_)" d="M50.136,71.18c-15.787,1.582-30.496,12.895-37.473,28.821
					c-6.073,13.86-9.279,37.347,9.923,70.528c13.806,23.854,34.664,39.169,53.069,52.684c17.511,12.859,32.634,23.965,34.445,38.002
					c0.206,1.602-0.165,3.188-1.046,4.463c-0.879,1.275-2.163,2.09-3.615,2.295c-1.452,0.201-2.897-0.229-4.07-1.219
					c-1.173-0.988-1.932-2.416-2.137-4.016l-7.246,1.014c0.481,3.738,2.252,7.064,4.988,9.373c2.736,2.307,6.108,3.318,9.496,2.842
					c3.386-0.473,6.384-2.375,8.438-5.352c2.054-2.979,2.92-6.676,2.439-10.418c-2.278-17.662-18.692-29.715-37.696-43.67
					c-17.789-13.063-37.952-27.868-50.909-50.258c-17.377-30.022-14.746-50.655-9.479-62.677
					c7.176-16.377,21.53-23.372,31.644-24.385c4.741-0.475,8.995,3.235,9.48,8.271c0.485,5.035-2.98,9.519-7.722,9.994
					c-3.042,0.305-6.52-1.744-7.754-4.568l-6.585,3.404c2.595,5.943,8.951,9.809,15.112,9.192
					c8.755-0.877,15.137-9.29,14.227-18.752C66.752,77.287,58.889,70.304,50.136,71.18z"/>
				
					<linearGradient id="SVGID_50_" gradientUnits="userSpaceOnUse" x1="-174.8076" y1="489.2783" x2="-158.3965" y2="489.2783" gradientTransform="matrix(0.997 -0.0776 -0.0776 -0.997 256.5853 566.9338)">
					<stop  offset="0" style="stop-color:#FFF1A6"/>
					<stop  offset="0.3565" style="stop-color:#C09847"/>
					<stop  offset="0.6435" style="stop-color:#9F6B21"/>
				</linearGradient>
				<path fill="url(#SVGID_50_)" d="M44.912,92.904c1.234,2.824,4.712,4.873,7.754,4.568c4.741-0.475,8.207-4.959,7.722-9.994
					c-0.049-0.5-0.147-0.982-0.266-1.452c-0.421,4.218-3.582,7.682-7.717,8.096c-3.042,0.304-7.059-1.453-8.292-4.276L44.912,92.904
					z"/>
				
					<linearGradient id="SVGID_51_" gradientUnits="userSpaceOnUse" x1="-196.9844" y1="749.2686" x2="-32.4653" y2="749.2686" gradientTransform="matrix(0.7598 0.6501 0.6501 -0.7598 -333.5609 837.1273)">
					<stop  offset="0" style="stop-color:#FFF1A6"/>
					<stop  offset="0.3565" style="stop-color:#C09847"/>
					<stop  offset="0.6435" style="stop-color:#9F6B21"/>
				</linearGradient>
				<path fill="url(#SVGID_51_)" d="M117.085,256.848c-2.277-17.664-18.692-29.715-37.695-43.67
					c-17.79-13.063-37.953-27.868-50.91-50.257c-8.286-14.315-12.011-26.49-13.083-36.619c0.549,10.759,4.122,24.037,13.343,39.969
					c12.957,22.391,33.121,37.195,50.911,50.258c19.004,13.955,35.416,26.008,37.694,43.67c-0.041-0.318-0.098-0.631-0.147-0.949
					C117.217,258.455,117.189,257.654,117.085,256.848z"/>
				
					<linearGradient id="SVGID_52_" gradientUnits="userSpaceOnUse" x1="-133.6597" y1="314.3008" x2="-122.3101" y2="314.3008" gradientTransform="matrix(0.997 -0.0776 -0.0776 -0.997 256.5853 566.9338)">
					<stop  offset="0" style="stop-color:#FFF1A6"/>
					<stop  offset="0.3565" style="stop-color:#C09847"/>
					<stop  offset="0.6435" style="stop-color:#9F6B21"/>
				</linearGradient>
				<path fill="url(#SVGID_52_)" d="M99.23,262.738c0.207,1.6,0.966,3.027,2.139,4.016c1.173,0.99,2.618,1.42,4.069,1.219
					c1.452-0.205,2.737-1.02,3.616-2.295c0.881-1.275,1.25-2.861,1.046-4.463c-0.069-0.539-0.187-1.066-0.294-1.594
					c-0.134,0.971-0.458,1.904-1.013,2.705c-0.88,1.277-2.164,2.092-3.616,2.295c-1.451,0.203-2.897-0.229-4.069-1.217
					c-1.173-0.99-2.158-2.4-2.522-3.967L99.23,262.738z"/>
				
					<linearGradient id="SVGID_53_" gradientUnits="userSpaceOnUse" x1="-181.0806" y1="489.1309" x2="-174.248" y2="489.1309" gradientTransform="matrix(0.997 -0.0776 -0.0776 -0.997 256.5853 566.9338)">
					<stop  offset="0" style="stop-color:#FFF1A6"/>
					<stop  offset="0.3565" style="stop-color:#C09847"/>
					<stop  offset="0.6435" style="stop-color:#9F6B21"/>
				</linearGradient>
				<polygon fill="url(#SVGID_53_)" points="44.113,89.847 38.063,92.958 38.325,96.309 44.912,92.904 				"/>
				
					<linearGradient id="SVGID_54_" gradientUnits="userSpaceOnUse" x1="-140.5742" y1="316.9307" x2="-133.2734" y2="316.9307" gradientTransform="matrix(0.997 -0.0776 -0.0776 -0.997 256.5853 566.9338)">
					<stop  offset="0" style="stop-color:#FFF1A6"/>
					<stop  offset="0.3565" style="stop-color:#C09847"/>
					<stop  offset="0.6435" style="stop-color:#9F6B21"/>
				</linearGradient>
				<polygon fill="url(#SVGID_54_)" points="98.586,259.438 91.804,260.438 91.986,263.752 99.23,262.738 				"/>
			</g>
			<g>
				
					<linearGradient id="SVGID_55_" gradientUnits="userSpaceOnUse" x1="-480.8174" y1="680.3242" x2="-272.2534" y2="680.3242" gradientTransform="matrix(-0.0776 0.997 -0.997 -0.0776 963.2522 603.1087)">
					<stop  offset="0" style="stop-color:#FFF1A6"/>
					<stop  offset="0.3565" style="stop-color:#C09847"/>
					<stop  offset="0.6435" style="stop-color:#9F6B21"/>
				</linearGradient>
				<path fill="url(#SVGID_55_)" d="M325.314,71.18c15.787,1.582,30.496,12.895,37.474,28.821
					c6.071,13.86,9.278,37.347-9.924,70.528c-13.806,23.854-34.663,39.169-53.068,52.684
					c-17.511,12.859-32.634,23.965-34.444,38.002c-0.207,1.602,0.164,3.188,1.045,4.463c0.879,1.275,2.164,2.09,3.615,2.295
					c1.452,0.201,2.897-0.229,4.07-1.219c1.173-0.988,1.932-2.416,2.137-4.016l7.246,1.014c-0.48,3.738-2.252,7.064-4.988,9.373
					c-2.735,2.307-6.107,3.318-9.496,2.842c-3.386-0.473-6.383-2.375-8.438-5.352c-2.055-2.979-2.92-6.676-2.439-10.418
					c2.278-17.662,18.692-29.715,37.696-43.67c17.789-13.063,37.951-27.868,50.909-50.258c17.377-30.022,14.745-50.655,9.479-62.677
					c-7.176-16.377-21.529-23.372-31.644-24.385c-4.741-0.475-8.995,3.235-9.479,8.271c-0.485,5.035,2.979,9.519,7.722,9.994
					c3.042,0.305,6.52-1.744,7.754-4.568l6.585,3.404c-2.596,5.943-8.95,9.809-15.111,9.192c-8.755-0.877-15.137-9.29-14.227-18.752
					C308.699,77.287,316.563,70.304,325.314,71.18z"/>
				
					<linearGradient id="SVGID_56_" gradientUnits="userSpaceOnUse" x1="-544.4399" y1="518.0479" x2="-528.0288" y2="518.0479" gradientTransform="matrix(-0.997 -0.0776 0.0776 -0.997 -251.89 566.9338)">
					<stop  offset="0" style="stop-color:#FFF1A6"/>
					<stop  offset="0.3565" style="stop-color:#C09847"/>
					<stop  offset="0.6435" style="stop-color:#9F6B21"/>
				</linearGradient>
				<path fill="url(#SVGID_56_)" d="M330.539,92.904c-1.234,2.824-4.712,4.873-7.754,4.568c-4.741-0.475-8.207-4.959-7.723-9.994
					c0.049-0.5,0.147-0.982,0.267-1.452c0.421,4.218,3.582,7.682,7.717,8.096c3.042,0.304,7.06-1.453,8.292-4.276L330.539,92.904z"
					/>
				
					<linearGradient id="SVGID_57_" gradientUnits="userSpaceOnUse" x1="-478.7051" y1="508.2227" x2="-314.1865" y2="508.2227" gradientTransform="matrix(-0.7598 0.6501 -0.6501 -0.7598 338.2562 837.1273)">
					<stop  offset="0" style="stop-color:#FFF1A6"/>
					<stop  offset="0.3565" style="stop-color:#C09847"/>
					<stop  offset="0.6435" style="stop-color:#9F6B21"/>
				</linearGradient>
				<path fill="url(#SVGID_57_)" d="M258.366,256.848c2.276-17.664,18.692-29.715,37.694-43.67
					c17.791-13.063,37.953-27.868,50.909-50.257c8.286-14.315,12.013-26.49,13.083-36.619c-0.549,10.759-4.121,24.037-13.344,39.969
					c-12.957,22.391-33.12,37.195-50.91,50.258c-19.004,13.955-35.416,26.008-37.693,43.67c0.041-0.318,0.098-0.631,0.146-0.949
					C258.234,258.455,258.262,257.654,258.366,256.848z"/>
				
					<linearGradient id="SVGID_58_" gradientUnits="userSpaceOnUse" x1="-503.292" y1="343.0703" x2="-491.9429" y2="343.0703" gradientTransform="matrix(-0.997 -0.0776 0.0776 -0.997 -251.89 566.9338)">
					<stop  offset="0" style="stop-color:#FFF1A6"/>
					<stop  offset="0.3565" style="stop-color:#C09847"/>
					<stop  offset="0.6435" style="stop-color:#9F6B21"/>
				</linearGradient>
				<path fill="url(#SVGID_58_)" d="M276.221,262.738c-0.207,1.6-0.966,3.027-2.139,4.016c-1.173,0.99-2.618,1.42-4.068,1.219
					c-1.453-0.205-2.738-1.02-3.617-2.295c-0.881-1.275-1.25-2.861-1.045-4.463c0.068-0.539,0.187-1.066,0.293-1.594
					c0.135,0.971,0.459,1.904,1.014,2.705c0.88,1.277,2.164,2.092,3.615,2.295s2.897-0.229,4.069-1.217
					c1.173-0.99,2.158-2.4,2.522-3.967L276.221,262.738z"/>
				
					<linearGradient id="SVGID_59_" gradientUnits="userSpaceOnUse" x1="-550.7139" y1="517.9004" x2="-543.8809" y2="517.9004" gradientTransform="matrix(-0.997 -0.0776 0.0776 -0.997 -251.89 566.9338)">
					<stop  offset="0" style="stop-color:#FFF1A6"/>
					<stop  offset="0.3565" style="stop-color:#C09847"/>
					<stop  offset="0.6435" style="stop-color:#9F6B21"/>
				</linearGradient>
				<polygon fill="url(#SVGID_59_)" points="331.338,89.847 337.389,92.958 337.126,96.309 330.539,92.904 				"/>
				
					<linearGradient id="SVGID_60_" gradientUnits="userSpaceOnUse" x1="-510.2065" y1="345.6992" x2="-502.9058" y2="345.6992" gradientTransform="matrix(-0.997 -0.0776 0.0776 -0.997 -251.89 566.9338)">
					<stop  offset="0" style="stop-color:#FFF1A6"/>
					<stop  offset="0.3565" style="stop-color:#C09847"/>
					<stop  offset="0.6435" style="stop-color:#9F6B21"/>
				</linearGradient>
				<polygon fill="url(#SVGID_60_)" points="276.865,259.438 283.646,260.438 283.465,263.752 276.221,262.738 				"/>
			</g>
		</g>
		
			<radialGradient id="SVGID_61_" cx="-494.3555" cy="599.0498" r="121.3972" gradientTransform="matrix(-0.9803 -0.1974 0.1974 -0.9803 -315.9504 534.4801)" gradientUnits="userSpaceOnUse">
			<stop  offset="0" style="stop-color:#FFFFFF"/>
			<stop  offset="0.0072" style="stop-color:#FFFFFF;stop-opacity:0.9853"/>
			<stop  offset="0.4909" style="stop-color:#FFFFFF;stop-opacity:0"/>
		</radialGradient>
		<path fill="url(#SVGID_61_)" d="M167.909,20.86c-13.233,65.728,29.309,129.722,95.041,142.96
			c65.754,13.243,129.741-29.302,142.976-95.039c13.238-65.729-29.291-129.732-95.047-142.969
			C245.143-87.423,181.146-44.881,167.909,20.86z"/>
		
			<radialGradient id="SVGID_62_" cx="-434.9951" cy="326.8828" r="51.1943" gradientTransform="matrix(-0.9803 -0.1974 0.1974 -0.9803 -315.9504 534.4801)" gradientUnits="userSpaceOnUse">
			<stop  offset="0" style="stop-color:#FFFFFF"/>
			<stop  offset="0.0072" style="stop-color:#FFFFFF;stop-opacity:0.9853"/>
			<stop  offset="0.4909" style="stop-color:#FFFFFF;stop-opacity:0"/>
		</radialGradient>
		<path fill="url(#SVGID_62_)" d="M124.815,289.803c-5.581,27.717,12.359,54.703,40.079,60.287
			c27.729,5.584,54.713-12.356,60.293-40.08c5.584-27.719-12.353-54.709-40.082-60.291
			C157.385,244.139,130.397,262.078,124.815,289.803z"/>
		
			<radialGradient id="SVGID_63_" cx="-442.4277" cy="267.1777" r="51.1943" gradientTransform="matrix(-0.9803 -0.1974 0.1974 -0.9803 -315.9504 534.4801)" gradientUnits="userSpaceOnUse">
			<stop  offset="0" style="stop-color:#FFFFFF"/>
			<stop  offset="0.0072" style="stop-color:#FFFFFF;stop-opacity:0.9853"/>
			<stop  offset="0.4909" style="stop-color:#FFFFFF;stop-opacity:0"/>
		</radialGradient>
		<path fill="url(#SVGID_63_)" d="M120.315,349.799c-5.581,27.717,12.359,54.703,40.079,60.287
			c27.729,5.584,54.713-12.357,60.293-40.08c5.584-27.719-12.353-54.709-40.082-60.291
			C152.885,304.135,125.897,322.074,120.315,349.799z"/>
		
			<radialGradient id="SVGID_64_" cx="-419.3174" cy="169.1895" r="51.1943" gradientTransform="matrix(-0.9803 -0.1974 0.1974 -0.9803 -315.9504 534.4801)" gradientUnits="userSpaceOnUse">
			<stop  offset="0" style="stop-color:#FFFFFF"/>
			<stop  offset="0.0072" style="stop-color:#FFFFFF;stop-opacity:0.9853"/>
			<stop  offset="0.4909" style="stop-color:#FFFFFF;stop-opacity:0"/>
		</radialGradient>
		<path fill="url(#SVGID_64_)" d="M78.317,441.295c-5.581,27.717,12.359,54.703,40.079,60.287
			c27.729,5.584,54.713-12.357,60.294-40.08c5.583-27.719-12.353-54.709-40.082-60.291
			C110.887,395.631,83.899,413.57,78.317,441.295z"/>
	</g>
</g>
</svg>
