<?xml version="1.0" encoding="utf-8"?>
<!-- Generator: Adobe Illustrator 16.0.0, SVG Export Plug-In . SVG Version: 6.00 Build 0)  -->
<!DOCTYPE svg PUBLIC "-//W3C//DTD SVG 1.1//EN" "http://www.w3.org/Graphics/SVG/1.1/DTD/svg11.dtd">
<svg version="1.1" id="Layer_1" xmlns="http://www.w3.org/2000/svg" xmlns:xlink="http://www.w3.org/1999/xlink" x="0px" y="0px"
	 width="8.907px" height="10.562px" viewBox="0 0 8.907 10.562" enable-background="new 0 0 8.907 10.562" xml:space="preserve">
<g>
	<path fill="#FFFFFF" d="M0,0.253h1.094l3.333,7.769l3.387-7.769h1.094L4.532,10.309H4.313L0,0.253z"/>
	<path display="none" fill="#FFFFFF" d="M9.557,8.436l0.854-0.513c0.602,1.107,1.296,1.661,2.085,1.661
		c0.337,0,0.654-0.079,0.95-0.236s0.522-0.368,0.677-0.632s0.232-0.544,0.232-0.841c0-0.337-0.114-0.667-0.342-0.991
		c-0.314-0.447-0.889-0.984-1.723-1.613c-0.838-0.633-1.36-1.091-1.565-1.374c-0.355-0.474-0.533-0.987-0.533-1.538
		c0-0.438,0.105-0.836,0.314-1.196s0.505-0.644,0.885-0.851S12.186,0,12.633,0c0.474,0,0.917,0.117,1.33,0.352
		s0.849,0.667,1.309,1.295l-0.82,0.622c-0.378-0.501-0.701-0.832-0.967-0.991s-0.557-0.239-0.872-0.239
		c-0.406,0-0.737,0.123-0.995,0.369s-0.386,0.549-0.386,0.909c0,0.219,0.045,0.431,0.137,0.636s0.257,0.428,0.499,0.67
		C12,3.75,12.432,4.085,13.166,4.628c0.871,0.643,1.467,1.214,1.791,1.716s0.485,1.005,0.485,1.511c0,0.729-0.277,1.363-0.831,1.9
		s-1.227,0.807-2.02,0.807c-0.611,0-1.165-0.163-1.661-0.489S9.976,9.201,9.557,8.436z"/>
</g>
</svg>
