<?xml version="1.0" encoding="utf-8"?>
<!-- Generator: Adobe Illustrator 16.0.0, SVG Export Plug-In . SVG Version: 6.00 Build 0)  -->
<!DOCTYPE svg PUBLIC "-//W3C//DTD SVG 1.1//EN" "http://www.w3.org/Graphics/SVG/1.1/DTD/svg11.dtd">
<svg version="1.1" id="Layer_1" xmlns="http://www.w3.org/2000/svg" xmlns:xlink="http://www.w3.org/1999/xlink" x="0px" y="0px"
	 width="29.935px" height="33.792px" viewBox="-18.223 -11.615 29.935 33.792"
	 enable-background="new -18.223 -11.615 29.935 33.792" xml:space="preserve">
<g>
	<path fill="#FFFFFF" d="M-18.223-11.615h3.676l11.198,26.107L8.034-11.615h3.679L-2.994,22.177H-3.73L-18.223-11.615z"/>
	<path display="none" fill="#FFFFFF" d="M13.891,15.884l2.868-1.727c2.024,3.722,4.357,5.582,7.009,5.582
		c1.129,0,2.195-0.266,3.189-0.791c0.998-0.527,1.753-1.237,2.278-2.126c0.518-0.887,0.777-1.828,0.777-2.825
		c0-1.133-0.385-2.242-1.148-3.331c-1.054-1.5-2.989-3.304-5.792-5.418c-2.815-2.126-4.568-3.665-5.258-4.617
		c-1.193-1.595-1.791-3.317-1.791-5.168c0-1.474,0.354-2.809,1.057-4.02s1.696-2.163,2.973-2.858c1.277-0.696,2.672-1.05,4.174-1.05
		c1.592,0,3.078,0.394,4.47,1.185c1.385,0.788,2.852,2.241,4.396,4.351l-2.755,2.09c-1.268-1.684-2.357-2.796-3.25-3.331
		s-1.87-0.804-2.93-0.804c-1.361,0-2.478,0.413-3.344,1.24c-0.866,0.827-1.296,1.844-1.296,3.055c0,0.735,0.15,1.447,0.462,2.136
		c0.309,0.689,0.86,1.437,1.674,2.25c0.446,0.427,1.896,1.552,4.364,3.377c2.927,2.162,4.929,4.079,6.019,5.766
		c1.086,1.69,1.628,3.38,1.628,5.079c0,2.448-0.933,4.578-2.793,6.383c-1.86,1.806-4.125,2.714-6.789,2.714
		c-2.051,0-3.911-0.548-5.579-1.644C16.838,20.287,15.298,18.453,13.891,15.884z"/>
</g>
</svg>
